<svg width="1464" height="715" viewBox="0 0 1464 715" fill="none" xmlns="http://www.w3.org/2000/svg">
<g clip-path="url(#clip0_301_1445)">
<rect width="1464" height="715" rx="35" fill="url(#paint0_linear_301_1445)"/>
<g opacity="0.84">
<path opacity="0.3" fill-rule="evenodd" clip-rule="evenodd" d="M1218.28 717.011C1218.28 714.466 1212.02 712.319 1203.32 711.499C1203.32 711.47 1203.34 711.442 1203.34 711.412C1203.34 710.545 1201.21 709.812 1198.24 709.531L1197.15 708.672C1197.36 708.595 1197.5 708.506 1197.5 708.404C1197.5 708.207 1197.03 708.042 1196.4 707.964L1195.72 705.258C1195.72 705.246 1195.67 705.236 1195.63 705.236C1195.57 705.236 1195.51 705.245 1195.51 705.258L1194.84 707.964C1194.19 708.041 1193.73 708.207 1193.73 708.404C1193.73 708.506 1193.87 708.595 1194.09 708.674L1193 709.531C1190.02 709.813 1187.89 710.543 1187.89 711.412C1187.89 711.442 1187.91 711.469 1187.92 711.499C1181.14 712.138 1175.9 713.585 1173.88 715.392V708.563H1174.29C1175.28 708.563 1176.07 708.357 1176.07 708.099V707.835C1176.07 707.581 1175.28 707.371 1174.29 707.371H1171.86C1171.97 707.198 1172.04 707.027 1172.04 706.844C1172.04 705.603 1169.5 704.512 1165.7 703.904C1163.37 703.529 1161.35 703.036 1159.75 702.462C1160.05 702.389 1160.23 702.284 1160.23 702.17C1160.23 702.009 1159.86 701.866 1159.31 701.807L1158.92 700.236H1158.47L1158.08 701.807C1157.53 701.866 1157.16 702.009 1157.16 702.17C1157.16 702.284 1157.34 702.389 1157.64 702.462C1156.06 703.039 1154.04 703.528 1151.68 703.904C1147.89 704.512 1145.35 705.603 1145.35 706.844C1145.35 707.028 1145.42 707.198 1145.52 707.371H1143.17C1142.18 707.371 1141.38 707.581 1141.38 707.835V708.099C1141.38 708.357 1142.18 708.563 1143.17 708.563H1143.52V715.076H1137.7C1139.21 714.342 1140.03 713.558 1140.03 712.749C1140.03 709.92 1130.1 707.444 1115.22 706.061C1105.53 705.158 1097.28 703.943 1090.85 702.531C1091.11 702.406 1091.27 702.273 1091.27 702.122C1091.27 701.753 1090.42 701.436 1089.18 701.295L1088.29 697.728H1087.26L1086.38 701.295C1085.15 701.436 1084.28 701.753 1084.28 702.122C1084.28 702.273 1084.46 702.406 1084.7 702.531C1078.81 703.831 1071.46 704.943 1062.76 705.821C1062.54 705.357 1062.08 704.873 1061.25 704.387C1059.95 703.598 1057.32 702.88 1054.32 702.23C1051.42 701.603 1048.16 701.069 1045.52 700.675C1045.61 700.583 1045.79 700.443 1045.79 700.304C1045.79 700.119 1045.7 699.91 1045.39 699.701C1045.03 699.492 1044.27 699.283 1043.42 699.121C1042.66 698.958 1041.82 698.82 1041.19 698.726L1041.14 698.379C1041.32 698.333 1041.42 698.309 1041.5 698.239C1041.68 698.193 1041.72 698.123 1041.72 698.055C1041.72 697.984 1041.63 697.914 1041.5 697.845C1041.37 697.799 1041.23 697.752 1041.01 697.729L1040.97 697.404C1041.05 697.381 1041.19 697.334 1041.24 697.311C1041.37 697.264 1041.42 697.218 1041.42 697.149C1041.42 697.102 1041.32 697.032 1041.24 696.987C1041.14 696.94 1041.01 696.917 1040.88 696.893L1040.79 696.546L1040.34 694.041C1040.34 693.995 1040.25 693.97 1040.17 693.97C1040.03 693.995 1039.94 694.017 1039.94 694.041L1039.49 696.546L1039.45 696.893C1039.27 696.918 1039.18 696.94 1039.09 696.987C1038.96 697.032 1038.91 697.102 1038.91 697.149C1038.91 697.218 1038.91 697.264 1039.04 697.311C1039.09 697.335 1039.23 697.381 1039.36 697.404L1039.27 697.729C1039.09 697.752 1038.91 697.799 1038.83 697.845C1038.64 697.914 1038.55 697.984 1038.55 698.055C1038.55 698.123 1038.64 698.193 1038.77 698.239C1038.87 698.31 1039 698.333 1039.18 698.379L1039.09 698.726C1038.46 698.82 1037.66 698.959 1036.85 699.121C1036.05 699.283 1035.29 699.492 1034.89 699.701C1034.57 699.91 1034.49 700.119 1034.53 700.304C1034.53 700.443 1034.67 700.583 1034.8 700.675C1032.12 701.069 1028.9 701.603 1026 702.23C1024.5 702.555 1023.09 702.896 1021.88 703.255C1013.24 697.752 993.015 693.808 969.045 693.459V692.897C969.045 692.694 968.402 692.528 967.625 692.528H966.518L965.61 686.613C968.139 686.837 970.881 686.922 973.696 686.793C978.235 686.586 982.001 685.918 984.429 685.007C982.681 685.287 980.721 685.487 978.577 685.584C969.638 685.992 961.085 684.436 959.524 682.112C958.751 680.961 959.811 679.84 962.172 678.952C956.646 679.846 953.452 681.55 954.647 683.321C955.655 684.813 959.549 685.979 964.571 686.523L963.682 692.528H962.549C962.18 692.528 961.835 692.565 961.573 692.633C961.311 692.7 961.17 692.792 961.17 692.886V693.471C938.946 693.888 920.04 697.397 910.814 702.355L910.625 694.888H911.412C912.701 694.888 913.767 694.611 913.767 694.282C913.767 693.952 912.701 693.679 911.412 693.679H910.625L910.443 685.287H911.412C912.551 685.287 913.505 685.049 913.505 684.753C913.505 684.501 912.832 684.287 911.934 684.229V681.716H912.756C913.354 681.716 913.837 681.59 913.837 681.435C913.837 681.285 913.355 681.163 912.756 681.163H911.745C912.343 680.712 913.055 679.849 911.577 678.97C910.886 678.562 909.469 678.175 907.897 677.835C906.343 677.505 904.627 677.224 903.224 677.02C903.3 676.962 903.372 676.894 903.372 676.811C903.393 676.709 903.355 676.602 903.149 676.497C902.981 676.38 902.571 676.273 902.122 676.186C901.732 676.103 901.283 676.035 900.946 675.987L900.909 675.797C900.985 675.778 901.077 675.754 901.115 675.729C901.191 675.696 901.228 675.662 901.228 675.628C901.228 675.588 901.191 675.545 901.097 675.517C901.06 675.487 900.946 675.468 900.854 675.448L900.836 675.283C900.87 675.268 900.946 675.249 900.984 675.225C901.037 675.206 901.06 675.177 901.06 675.147C901.06 675.119 901.037 675.085 900.967 675.06C900.927 675.041 900.854 675.021 900.76 675.002L900.739 674.827L900.516 673.499C900.498 673.479 900.461 673.469 900.385 673.469C900.31 673.469 900.272 673.483 900.272 673.499L900.049 674.827L900.015 675.002C899.939 675.021 899.863 675.041 899.826 675.06C899.75 675.085 899.713 675.118 899.713 675.147C899.713 675.177 899.75 675.206 899.807 675.225C899.847 675.249 899.902 675.268 899.978 675.283L899.941 675.448C899.828 675.468 899.752 675.487 899.676 675.517C899.603 675.545 899.566 675.588 899.566 675.628C899.566 675.662 899.603 675.696 899.676 675.729C899.713 675.754 899.789 675.778 899.865 675.797L899.847 675.987C899.527 676.035 899.077 676.103 898.671 676.186C898.217 676.273 897.809 676.38 897.623 676.497C897.434 676.602 897.4 676.71 897.416 676.811C897.434 676.894 897.492 676.962 897.547 677.02C896.164 677.224 894.445 677.506 892.912 677.835C891.304 678.175 889.924 678.563 889.213 678.97C887.717 679.848 888.467 680.712 889.048 681.163H887.835C887.268 681.163 886.786 681.285 886.786 681.435C886.786 681.589 887.268 681.716 887.835 681.716H888.73V684.229C887.815 684.283 887.124 684.496 887.124 684.753C887.124 685.049 888.056 685.287 889.18 685.287H890.188L889.999 693.679H889.18C887.906 693.679 886.862 693.951 886.862 694.282C886.862 694.611 887.905 694.888 889.18 694.888H889.961L889.857 699.764C881.844 695.379 857.932 695.849 850.861 699.025V698.029H851.189C852.049 698.029 852.707 697.857 852.707 697.651C852.707 697.411 852.049 697.239 851.189 697.239H850.336C851.918 696.346 855.685 693.463 850.725 690.544C848.809 689.376 844.911 688.313 840.476 687.352C836.175 686.424 831.351 685.635 827.451 685.051C827.585 684.914 827.847 684.707 827.847 684.502C827.847 684.227 827.716 683.918 827.258 683.609C826.724 683.3 825.6 682.991 824.342 682.751C823.221 682.51 821.966 682.304 821.037 682.166L820.97 681.652C821.241 681.584 821.371 681.549 821.501 681.446C821.768 681.377 821.832 681.274 821.832 681.172C821.832 681.068 821.698 680.965 821.501 680.862C821.306 680.793 821.102 680.724 820.775 680.69L820.708 680.209C820.836 680.175 821.037 680.107 821.104 680.072C821.307 680.004 821.371 679.935 821.371 679.833C821.371 679.764 821.24 679.66 821.104 679.592C820.97 679.523 820.775 679.489 820.577 679.455L820.444 678.94L819.782 675.232C819.782 675.164 819.651 675.129 819.52 675.129C819.319 675.164 819.183 675.198 819.183 675.232L818.524 678.94L818.46 679.455C818.189 679.49 818.065 679.524 817.932 679.592C817.732 679.66 817.665 679.764 817.665 679.833C817.665 679.935 817.665 680.004 817.862 680.072C817.932 680.107 818.13 680.176 818.328 680.209L818.191 680.69C817.932 680.724 817.665 680.794 817.535 680.862C817.271 680.965 817.137 681.068 817.137 681.172C817.137 681.274 817.271 681.377 817.468 681.446C817.602 681.549 817.803 681.584 818.066 681.652L817.932 682.166C817.006 682.304 815.818 682.51 814.627 682.751C813.436 682.991 812.312 683.3 811.714 683.609C811.249 683.918 811.122 684.227 811.183 684.502C811.183 684.707 811.387 684.913 811.585 685.051C807.615 685.635 802.855 686.424 798.563 687.352C794.132 688.312 790.162 689.376 788.242 690.544C783.285 693.463 787.118 696.346 788.635 697.239H787.848C786.986 697.239 786.324 697.411 786.324 697.651C786.324 697.856 786.986 698.029 787.848 698.029H788.571V699.025H781.438L781.302 681.343H783.416C784.808 681.343 785.927 681.034 785.927 680.691C785.927 680.314 784.806 680.039 783.416 680.039H781.302L781.104 670.254H781.832C783.02 670.254 784.081 670.014 784.081 669.705C784.081 669.362 783.02 669.121 781.832 669.121H781.031L780.906 661.191H781.832C782.89 661.191 783.813 660.951 783.813 660.676C783.813 660.435 783.148 660.229 782.292 660.196V657.792H783.087C783.679 657.792 784.081 657.688 784.081 657.551C784.081 657.414 783.679 657.277 783.087 657.277H782.164C782.69 656.864 783.416 656.041 781.966 655.217C781.302 654.839 779.977 654.461 778.526 654.153C777.068 653.809 775.415 653.568 774.095 653.363C774.162 653.329 774.229 653.26 774.229 653.157C774.229 653.088 774.162 652.986 774.025 652.882C773.827 652.745 773.499 652.642 773.038 652.573C772.642 652.505 772.242 652.436 771.908 652.402V652.196C771.98 652.196 772.044 652.162 772.044 652.127C772.175 652.127 772.175 652.092 772.175 652.058C772.175 652.024 772.175 651.989 772.044 651.955C772.044 651.921 771.908 651.886 771.783 651.886V651.715C771.908 651.715 771.908 651.681 771.98 651.681C772.044 651.646 772.044 651.611 772.044 651.577C772.044 651.577 772.044 651.543 771.908 651.508C771.908 651.474 771.847 651.474 771.783 651.474L771.716 651.303L771.512 650.032C771.512 650.032 771.448 649.998 771.378 649.998C771.314 649.998 771.25 650.032 771.25 650.032L771.053 651.303V651.474C770.986 651.474 770.852 651.474 770.852 651.508C770.788 651.543 770.724 651.577 770.724 651.577C770.724 651.611 770.788 651.646 770.852 651.681C770.852 651.681 770.919 651.715 770.986 651.715V651.886C770.852 651.886 770.788 651.921 770.724 651.955C770.651 651.989 770.59 652.024 770.59 652.058C770.59 652.092 770.651 652.127 770.724 652.127C770.724 652.162 770.852 652.196 770.919 652.196L770.852 652.402C770.59 652.436 770.19 652.505 769.795 652.573C769.329 652.642 769.002 652.744 768.737 652.882C768.604 652.986 768.604 653.088 768.604 653.157C768.604 653.26 768.671 653.329 768.737 653.363C767.413 653.568 765.761 653.809 764.301 654.153C762.787 654.461 761.461 654.839 760.802 655.217C759.419 656.041 760.146 656.864 760.674 657.277H759.547C758.949 657.277 758.557 657.413 758.557 657.551C758.557 657.689 758.949 657.792 759.547 657.792H760.343V658.443C760.343 658.479 760.343 658.513 760.27 658.547L760.343 658.615V660.196C759.483 660.229 758.819 660.435 758.819 660.676C758.819 660.951 759.745 661.191 760.802 661.191H761.731L761.598 669.121H760.802C759.614 669.121 758.557 669.362 758.557 669.705C758.557 670.014 759.614 670.254 760.802 670.254H761.528L761.33 680.039H759.213C757.833 680.039 756.701 680.314 756.701 680.691C756.701 681.034 757.834 681.343 759.213 681.343H761.269L761.199 691.54H757.43V687.455H748.831V686.459H749.169C749.958 686.459 750.687 686.287 750.687 686.081C750.687 685.841 749.958 685.67 749.169 685.67H748.373C749.891 684.777 753.659 681.892 748.769 678.975C746.791 677.808 742.888 676.743 738.456 675.782C734.154 674.855 729.331 674.065 725.434 673.481C725.629 673.343 725.759 673.138 725.89 672.897C725.89 672.657 725.759 672.349 725.229 672.039C724.702 671.73 723.58 671.421 722.322 671.18C721.201 670.94 719.943 670.734 719.016 670.597L718.95 670.083C719.211 670.013 719.412 669.979 719.547 669.876C719.678 669.807 719.812 669.704 719.812 669.601C719.812 669.497 719.678 669.395 719.547 669.292C719.28 669.224 719.082 669.155 718.752 669.121L718.685 668.64C718.883 668.606 719.016 668.537 719.147 668.503C719.281 668.434 719.412 668.366 719.412 668.262C719.412 668.194 719.281 668.091 719.147 668.022C719.016 667.954 718.752 667.919 718.559 667.885L718.486 667.37L717.827 663.662C717.827 663.593 717.696 663.559 717.498 663.559C717.295 663.593 717.17 663.628 717.17 663.662L716.505 667.37L716.441 667.885C716.237 667.919 716.04 667.954 715.91 668.022C715.71 668.091 715.643 668.194 715.643 668.262C715.643 668.366 715.71 668.434 715.843 668.503C715.98 668.537 716.111 668.606 716.309 668.64L716.239 669.121C715.98 669.155 715.711 669.224 715.513 669.292C715.316 669.395 715.185 669.497 715.185 669.601C715.185 669.704 715.316 669.807 715.446 669.876C715.58 669.98 715.845 670.013 716.111 670.083L715.98 670.597C715.054 670.734 713.857 670.94 712.666 671.18C711.475 671.421 710.287 671.73 709.762 672.039C709.231 672.349 709.101 672.657 709.164 672.897C709.231 673.138 709.362 673.343 709.557 673.481C705.663 674.065 700.9 674.855 696.538 675.782C692.104 676.743 688.205 677.807 686.286 678.975C681.332 681.892 685.162 684.777 686.617 685.67H685.828C685.032 685.67 684.368 685.841 684.368 686.081C684.368 686.287 685.032 686.459 685.828 686.459H686.617V687.455H677.559V691.54H671.017V688.45C671.807 688.313 672.473 688.106 672.473 687.832C672.473 687.454 671.413 687.111 670.091 687.043V683.231H671.349C672.202 683.231 672.931 683.026 672.931 682.82C672.931 682.579 672.202 682.409 671.349 682.409H669.828C670.69 681.721 671.808 680.416 669.557 679.078C668.5 678.459 666.386 677.875 664.005 677.362C661.623 676.846 659.048 676.434 656.867 676.125C657.003 676.057 657.131 675.919 657.131 675.815C657.131 675.645 657.131 675.507 656.8 675.335C656.465 675.164 655.94 674.992 655.215 674.855C654.62 674.752 653.96 674.614 653.429 674.546V674.271C653.563 674.237 653.691 674.203 653.691 674.168C653.824 674.133 653.888 674.064 653.888 674.031C653.888 673.962 653.824 673.893 653.691 673.86C653.563 673.79 653.429 673.756 653.295 673.756V673.481C653.362 673.481 653.429 673.447 653.496 673.412C653.563 673.378 653.627 673.343 653.627 673.276C653.627 673.241 653.563 673.206 653.496 673.172C653.429 673.138 653.295 673.103 653.158 673.069V672.794L652.769 670.803C652.769 670.769 652.699 670.734 652.632 670.734C652.507 670.734 652.434 670.769 652.434 670.803L652.103 672.794L652.039 673.069C651.902 673.103 651.841 673.138 651.71 673.172C651.643 673.206 651.573 673.241 651.573 673.276C651.573 673.343 651.643 673.378 651.71 673.412C651.774 673.447 651.841 673.481 651.972 673.481V673.756C651.774 673.756 651.643 673.79 651.573 673.86C651.443 673.893 651.309 673.962 651.309 674.031C651.309 674.065 651.443 674.134 651.506 674.168C651.573 674.203 651.71 674.237 651.841 674.271L651.774 674.546C651.309 674.614 650.65 674.752 649.988 674.855C649.333 674.992 648.73 675.164 648.397 675.335C648.142 675.507 648.069 675.679 648.142 675.815C648.142 675.919 648.203 676.057 648.273 676.125C646.222 676.434 643.638 676.846 641.265 677.362C638.878 677.875 636.764 678.46 635.704 679.078C633.456 680.416 634.513 681.721 635.439 682.409H633.587C632.733 682.409 632.005 682.579 632.005 682.82C632.005 683.026 632.733 683.231 633.587 683.231H634.914V687.043C633.587 687.111 632.535 687.454 632.535 687.832C632.535 688.106 633.127 688.312 633.857 688.45V691.54H633.759V691.407C628.09 681.199 603.793 672.734 543.109 666.403C511.899 663.145 496.424 658.718 488.847 655.467C496.113 654.643 501.195 652.764 501.195 650.574C501.195 647.965 493.984 645.796 484.459 645.33L484.122 642.975C486.753 642.677 488.594 641.998 488.594 641.206C488.594 640.364 486.507 639.655 483.607 639.392L482.8 633.741C492.023 634.255 501.853 634.167 511.425 633.329C525.803 632.069 536.745 629.409 542.878 626.131C537.759 627.269 531.758 628.173 524.99 628.767C496.644 631.247 465.882 627.29 456.316 619.932C451.575 616.286 452.897 612.498 458.883 609.3C442.578 612.927 435.456 618.884 442.754 624.495C448.805 629.156 463.39 632.446 480.465 633.605L479.138 639.357C476.023 639.587 473.725 640.324 473.725 641.206C473.725 642.008 475.614 642.696 478.296 642.987L477.762 645.291C467.762 645.654 460.058 647.877 460.058 650.574C460.058 652.859 465.597 654.803 473.372 655.565C465.714 658.806 450.233 663.178 419.336 666.403C362.799 672.302 337.831 680.053 330.104 689.341V688.45C330.831 688.313 331.426 688.106 331.426 687.832C331.426 687.454 330.373 687.111 329.047 687.043V683.231H330.373C331.228 683.231 331.955 683.026 331.955 682.82C331.955 682.579 331.228 682.409 330.373 682.409H328.522C329.448 681.721 330.504 680.416 328.256 679.078C327.195 678.459 325.083 677.875 322.696 677.362C320.322 676.846 317.739 676.434 315.689 676.125C315.757 676.057 315.819 675.919 315.819 675.815C315.891 675.679 315.819 675.507 315.562 675.335C315.229 675.164 314.628 674.992 313.971 674.855C313.311 674.752 312.649 674.614 312.187 674.546L312.12 674.271C312.251 674.237 312.386 674.203 312.453 674.168C312.517 674.133 312.651 674.064 312.651 674.031C312.651 673.962 312.517 673.893 312.386 673.86C312.318 673.79 312.187 673.756 311.989 673.756V673.481C312.12 673.481 312.187 673.447 312.251 673.412C312.318 673.378 312.386 673.343 312.386 673.276C312.386 673.241 312.318 673.206 312.251 673.172C312.12 673.138 312.058 673.103 311.922 673.069L311.858 672.794L311.525 670.803C311.525 670.769 311.454 670.734 311.328 670.734C311.261 670.734 311.192 670.769 311.192 670.803L310.801 672.794V673.069C310.666 673.103 310.531 673.138 310.464 673.172C310.397 673.206 310.333 673.241 310.333 673.276C310.333 673.343 310.397 673.378 310.464 673.412C310.531 673.447 310.599 673.481 310.666 673.481V673.756C310.531 673.756 310.397 673.79 310.27 673.86C310.135 673.893 310.071 673.962 310.071 674.031C310.071 674.065 310.135 674.134 310.27 674.168C310.27 674.203 310.397 674.237 310.531 674.271V674.546C310.001 674.614 309.34 674.752 308.746 674.855C308.019 674.992 307.493 675.164 307.16 675.335C306.828 675.507 306.828 675.645 306.828 675.815C306.828 675.919 306.958 676.057 307.093 676.125C304.913 676.434 302.338 676.846 299.954 677.362C297.573 677.875 295.46 678.46 294.404 679.078C292.151 680.416 293.271 681.721 294.133 682.409H292.611C291.757 682.409 291.029 682.579 291.029 682.82C291.029 683.026 291.757 683.231 292.611 683.231H293.87V687.043C292.548 687.111 291.487 687.454 291.487 687.832C291.487 688.106 292.151 688.312 292.942 688.45V691.54H286.399V687.455H277.341V686.459H278.132C278.927 686.459 279.592 686.287 279.592 686.081C279.592 685.841 278.927 685.67 278.132 685.67H277.341C278.796 684.777 282.628 681.892 277.674 678.975C275.754 677.808 271.857 676.743 267.42 675.782C263.059 674.855 258.295 674.065 254.401 673.481C254.596 673.343 254.727 673.138 254.794 672.897C254.858 672.657 254.727 672.349 254.196 672.039C253.67 671.73 252.485 671.421 251.292 671.18C250.101 670.94 248.907 670.734 247.979 670.597L247.848 670.083C248.115 670.013 248.379 669.979 248.513 669.876C248.644 669.807 248.775 669.704 248.775 669.601C248.775 669.497 248.644 669.395 248.446 669.292C248.248 669.224 247.979 669.155 247.719 669.121L247.651 668.64C247.848 668.606 247.979 668.537 248.115 668.503C248.25 668.434 248.317 668.366 248.317 668.262C248.317 668.194 248.25 668.091 248.048 668.022C247.917 667.954 247.719 667.919 247.517 667.885L247.454 667.37L246.79 663.662C246.79 663.628 246.663 663.593 246.461 663.559C246.263 663.559 246.133 663.593 246.133 663.662L245.472 667.37L245.4 667.885C245.206 667.919 244.94 667.954 244.811 668.022C244.675 668.091 244.545 668.194 244.545 668.262C244.545 668.366 244.675 668.434 244.811 668.503C244.94 668.537 245.075 668.606 245.273 668.64L245.206 669.121C244.873 669.155 244.677 669.224 244.411 669.292C244.28 669.395 244.146 669.497 244.146 669.601C244.146 669.704 244.28 669.807 244.411 669.876C244.546 669.98 244.748 670.013 245.009 670.083L244.94 670.597C244.015 670.734 242.756 670.94 241.636 671.18C240.377 671.421 239.253 671.73 238.728 672.039C238.199 672.349 238.068 672.657 238.068 672.897C238.199 673.138 238.33 673.343 238.523 673.481C234.626 674.065 229.802 674.855 225.501 675.782C221.07 676.743 217.168 677.807 215.188 678.975C210.297 681.892 214.064 684.777 215.585 685.67H214.789C213.998 685.67 213.27 685.841 213.27 686.081C213.27 686.287 213.998 686.459 214.789 686.459H215.127V687.455H206.528V691.54H202.758L202.689 681.343H204.744C206.125 681.343 207.255 681.034 207.255 680.691C207.255 680.314 206.124 680.039 204.744 680.039H202.627L202.429 670.254H203.156C204.343 670.254 205.4 670.014 205.4 669.705C205.4 669.362 204.343 669.121 203.156 669.121H202.361L202.225 661.191H203.156C204.213 661.191 205.138 660.951 205.138 660.676C205.138 660.435 204.473 660.229 203.615 660.196V658.615L203.687 658.547C203.615 658.513 203.615 658.479 203.615 658.443V657.792H204.411C205.007 657.792 205.4 657.688 205.4 657.551C205.4 657.414 205.007 657.277 204.411 657.277H203.282C203.812 656.864 204.537 656.041 203.156 655.217C202.496 654.839 201.17 654.461 199.656 654.153C198.196 653.809 196.544 653.568 195.219 653.363C195.287 653.329 195.354 653.26 195.354 653.157C195.354 653.088 195.354 652.986 195.219 652.882C194.954 652.745 194.627 652.642 194.163 652.573C193.766 652.505 193.368 652.436 193.106 652.402L193.039 652.196C193.106 652.196 193.233 652.162 193.233 652.127C193.305 652.127 193.368 652.092 193.368 652.058C193.368 652.024 193.305 651.989 193.233 651.955C193.17 651.921 193.106 651.886 192.971 651.886V651.715C193.039 651.715 193.106 651.681 193.106 651.681C193.17 651.646 193.233 651.611 193.233 651.577C193.233 651.577 193.17 651.543 193.106 651.508C193.106 651.474 192.971 651.474 192.904 651.474V651.303L192.706 650.032C192.706 650.032 192.642 649.998 192.58 649.998C192.509 649.998 192.445 650.032 192.445 650.032L192.242 651.303L192.175 651.474C192.112 651.474 192.049 651.474 192.049 651.508C191.914 651.543 191.914 651.577 191.914 651.577C191.914 651.611 191.914 651.646 191.976 651.681C192.049 651.681 192.049 651.715 192.175 651.715V651.886C192.049 651.886 191.914 651.921 191.914 651.955C191.783 651.989 191.783 652.024 191.783 652.058C191.783 652.092 191.783 652.127 191.914 652.127C191.914 652.162 191.976 652.196 192.049 652.196V652.402C191.716 652.436 191.316 652.505 190.921 652.573C190.457 652.642 190.13 652.744 189.932 652.882C189.796 652.986 189.73 653.088 189.73 653.157C189.73 653.26 189.796 653.329 189.863 653.363C188.542 653.568 186.888 653.809 185.432 654.153C183.98 654.461 182.655 654.839 181.99 655.217C180.542 656.041 181.268 656.864 181.793 657.277H180.871C180.277 657.277 179.878 657.413 179.878 657.551C179.878 657.689 180.277 657.792 180.871 657.792H181.666V660.196C180.808 660.229 180.144 660.435 180.144 660.676C180.144 660.951 181.069 661.191 182.126 661.191H183.051L182.926 669.121H182.126C180.938 669.121 179.878 669.362 179.878 669.705C179.878 670.014 180.938 670.254 182.126 670.254H182.853L182.655 680.039H180.542C179.149 680.039 178.029 680.314 178.029 680.691C178.029 681.034 179.15 681.343 180.542 681.343H182.655L182.52 699.025H175.386V698.029H176.11C176.972 698.029 177.632 697.857 177.632 697.651C177.632 697.411 176.972 697.239 176.11 697.239H175.323C176.838 696.346 180.673 693.463 175.714 690.544C173.795 689.376 169.826 688.313 165.395 687.352C161.101 686.424 156.342 685.635 152.373 685.051C152.571 684.914 152.773 684.707 152.773 684.502C152.836 684.227 152.706 683.918 152.244 683.609C151.646 683.3 150.522 682.991 149.331 682.751C148.14 682.51 146.952 682.304 146.026 682.166L145.892 681.652C146.157 681.584 146.356 681.549 146.488 681.446C146.688 681.377 146.821 681.274 146.821 681.172C146.821 681.068 146.688 680.965 146.421 680.862C146.291 680.793 146.024 680.724 145.766 680.69L145.63 680.209C145.828 680.175 146.026 680.107 146.094 680.072C146.292 680.004 146.292 679.935 146.292 679.833C146.292 679.764 146.225 679.66 146.026 679.592C145.892 679.523 145.766 679.489 145.497 679.455L145.434 678.94L144.774 675.232C144.774 675.198 144.639 675.164 144.436 675.129C144.306 675.129 144.175 675.164 144.175 675.232L143.515 678.94L143.379 679.455C143.181 679.49 142.988 679.524 142.853 679.592C142.718 679.66 142.587 679.764 142.587 679.833C142.587 679.935 142.651 680.004 142.853 680.072C142.92 680.107 143.122 680.176 143.248 680.209L143.181 680.69C142.853 680.724 142.652 680.794 142.457 680.862C142.26 680.965 142.124 681.068 142.124 681.172C142.124 681.274 142.188 681.377 142.457 681.446C142.588 681.549 142.719 681.584 142.988 681.652L142.92 682.166C141.99 682.304 140.736 682.51 139.616 682.751C138.357 682.991 137.232 683.3 136.699 683.609C136.239 683.918 136.11 684.227 136.11 684.502C136.11 684.707 136.372 684.913 136.507 685.051C132.605 685.635 127.782 686.424 123.48 687.352C119.048 688.312 115.149 689.376 113.231 690.544C108.273 693.463 112.039 696.346 113.622 697.239H112.769C111.91 697.239 111.249 697.411 111.249 697.651C111.249 697.856 111.91 698.029 112.769 698.029H113.098V699.025C106.026 695.849 82.1141 695.379 74.1013 699.764L73.9958 694.888H74.7779C76.0506 694.888 77.0944 694.611 77.0944 694.282C77.0944 693.952 76.0521 693.679 74.7779 693.679H73.9571L73.7698 685.287H74.7779C75.9004 685.287 76.8342 685.049 76.8342 684.753C76.8342 684.496 76.1413 684.283 75.2284 684.229V681.716H76.1235C76.6885 681.716 77.1717 681.59 77.1717 681.435C77.1717 681.285 76.6885 681.163 76.1235 681.163H74.9102C75.4916 680.712 76.2395 679.849 74.7437 678.97C74.0314 678.562 72.6531 678.175 71.0443 677.835C69.5113 677.505 67.791 677.224 66.4112 677.02C66.4662 676.962 66.5227 676.894 66.5421 676.811C66.5584 676.709 66.5227 676.602 66.3354 676.497C66.148 676.38 65.7392 676.273 65.2871 676.186C64.8797 676.103 64.4292 676.035 64.111 675.987L64.0917 675.797C64.1675 675.778 64.2434 675.754 64.2805 675.729C64.3534 675.696 64.392 675.662 64.392 675.628C64.392 675.588 64.3534 675.545 64.2805 675.517C64.2047 675.487 64.1289 675.468 64.0173 675.448L63.9802 675.283C64.0545 675.268 64.111 675.249 64.1497 675.225C64.2047 675.206 64.2434 675.177 64.2434 675.147C64.2434 675.119 64.2062 675.085 64.1304 675.06C64.0932 675.041 64.0188 675.021 63.943 675.002L63.9073 674.827L63.6843 673.499C63.6843 673.483 63.6471 673.469 63.5713 673.469C63.4955 673.469 63.4583 673.479 63.4404 673.499L63.2174 674.827L63.1966 675.002C63.1044 675.021 63.0316 675.041 62.9899 675.06C62.92 675.085 62.8977 675.118 62.8977 675.147C62.8977 675.177 62.92 675.206 62.9736 675.225C63.0093 675.249 63.0851 675.268 63.1208 675.283L63.1044 675.448C63.0107 675.468 62.8977 675.487 62.8591 675.517C62.7669 675.545 62.7297 675.588 62.7297 675.628C62.7297 675.662 62.7669 675.696 62.8427 675.729C62.8784 675.754 62.9736 675.778 63.0494 675.797L63.0107 675.987C62.6747 676.035 62.2257 676.103 61.8346 676.186C61.3841 676.273 60.9752 676.38 60.8072 676.497C60.6005 676.602 60.5633 676.71 60.5842 676.811C60.5842 676.894 60.657 676.962 60.7328 677.02C59.3322 677.224 57.6134 677.506 56.0596 677.835C54.488 678.175 53.071 678.563 52.3796 678.97C50.9031 679.848 51.6138 680.712 52.2116 681.163H51.202C50.6043 681.163 50.1195 681.285 50.1195 681.435C50.1195 681.589 50.6028 681.716 51.202 681.716H52.0227V684.229C51.1247 684.287 50.4526 684.501 50.4526 684.753C50.4526 685.049 51.4087 685.287 52.5446 685.287H53.5156L53.3312 693.679H52.5446C51.2555 693.679 50.1909 693.951 50.1909 694.282C50.1909 694.611 51.2555 694.888 52.5446 694.888H53.3312L53.1424 702.355C43.9163 697.397 25.0122 693.888 2.7864 693.471V692.886C2.7864 692.792 2.64366 692.7 2.38346 692.633C2.12177 692.565 1.7783 692.528 1.40807 692.528H0.269124L0 690.707V752.899H1224.98V719.641V718.752H1217.16C1217.83 718.198 1218.28 717.62 1218.28 717.011ZM67.455 683.229V684.214H59.7917V683.229C59.7917 683.229 59.7545 683.152 60.034 683.054C60.3344 682.957 60.2035 682.88 60.0905 682.783C59.2326 682.162 63.1758 682.192 63.6427 681.716C64.0902 682.192 68.0334 682.161 67.1948 682.783C67.0431 682.88 66.9301 682.957 67.229 683.054C67.5279 683.152 67.455 683.229 67.455 683.229ZM188.275 659.951V658.133C188.275 657.443 190.072 656.863 192.506 656.685C194.953 656.863 196.745 657.443 196.745 658.133V659.91L196.748 659.951H188.275ZM303.466 685.524H298.549V682.693C298.549 681.775 299.584 681.004 300.995 680.772C302.423 681.004 303.466 681.775 303.466 682.693V685.524ZM305.325 685.521V682.85C305.325 681.837 307.963 680.984 311.537 680.723C315.131 680.984 317.763 681.837 317.763 682.85V685.46L317.767 685.521H305.325ZM325.014 685.533H320.099V682.693C320.099 681.775 321.133 681.005 322.561 680.772C323.975 681.005 325.013 681.775 325.013 682.693V685.533H325.014ZM643.861 685.533H638.944V682.693C638.944 681.775 639.983 681.005 641.397 680.772C642.823 681.005 643.859 681.775 643.859 682.693V685.533H643.861ZM658.635 685.521H646.194L646.2 685.46V682.85C646.2 681.837 648.832 680.984 652.424 680.723C655.998 680.984 658.636 681.837 658.636 682.85V685.521H658.635ZM665.409 685.524H660.492V682.693C660.492 681.775 661.537 681.004 662.963 680.772C664.374 681.004 665.409 681.775 665.409 682.693V685.524ZM775.684 659.951H767.214L767.216 659.91V658.133C767.216 657.443 769.008 656.863 771.454 656.685C773.888 656.863 775.686 657.443 775.686 658.133V659.951H775.684ZM904.168 683.229V684.214H896.505V683.229C896.505 683.229 896.432 683.152 896.731 683.054C897.029 682.957 896.916 682.88 896.765 682.783C895.926 682.162 899.869 682.192 900.317 681.716C900.784 682.192 904.728 682.161 903.869 682.783C903.756 682.88 903.625 682.957 903.927 683.054C904.205 683.152 904.168 683.229 904.168 683.229ZM1150.4 715.076H1145.48V711.533C1145.48 710.614 1146.52 709.843 1147.94 709.611C1149.36 709.843 1150.4 710.614 1150.4 711.533L1150.4 715.076ZM1164.91 715.136H1155.49V715.076H1152.48V711.15C1152.48 710.136 1155.11 709.284 1158.7 709.023C1162.28 709.284 1164.92 710.136 1164.92 711.15L1164.91 715.136ZM1171.95 715.136H1167.03V711.533C1167.03 710.614 1168.08 709.843 1169.5 709.611C1170.91 709.843 1171.95 710.614 1171.95 711.533V715.136Z" fill="#0E9F6E"/>
<path opacity="0.3" fill-rule="evenodd" clip-rule="evenodd" d="M0 684.356V686.444C4.71339 685.873 8.33839 684.75 9.30486 683.321C10.5003 681.55 7.30501 679.845 1.7783 678.951C4.14094 679.84 5.20108 680.961 4.42642 682.112C3.83613 682.992 2.23775 683.761 0 684.356Z" fill="#0E9F6E"/>
<path opacity="0.3" fill-rule="evenodd" clip-rule="evenodd" d="M1521.69 586.243C1520.84 585.98 1519.98 585.716 1519.1 585.457C1497.67 579.141 1487.05 570.559 1481.84 564.257C1486.83 562.66 1490.32 559.016 1490.32 554.771C1490.32 549.713 1485.37 545.51 1478.83 544.605L1478.6 540.04C1480.41 539.463 1481.67 538.147 1481.67 536.611C1481.67 534.979 1480.24 533.605 1478.24 533.094L1477.69 522.139C1484.02 523.136 1490.77 522.965 1497.35 521.342C1507.22 518.898 1514.73 513.743 1518.94 507.388C1515.43 509.594 1511.31 511.346 1506.66 512.497C1487.2 517.305 1466.07 509.634 1459.5 495.37C1456.25 488.302 1457.16 480.958 1461.27 474.76C1450.07 481.791 1445.18 493.339 1450.19 504.215C1454.35 513.252 1464.36 519.629 1476.09 521.875L1475.17 533.027C1473.04 533.473 1471.46 534.9 1471.46 536.611C1471.46 538.166 1472.75 539.499 1474.6 540.063L1474.23 544.53C1467.36 545.234 1462.07 549.543 1462.07 554.771C1462.07 559.201 1465.88 562.969 1471.22 564.447C1465.96 570.73 1455.33 579.205 1434.11 585.457C1395.29 596.892 1378.14 611.918 1372.84 629.923V628.195C1373.34 627.929 1373.75 627.53 1373.75 626.998C1373.75 626.265 1373.02 625.599 1372.11 625.467V618.078H1373.02C1373.61 618.078 1374.11 617.68 1374.11 617.282C1374.11 616.814 1373.61 616.484 1373.02 616.484H1371.75C1372.39 615.151 1373.11 612.621 1371.57 610.027C1370.84 608.828 1369.39 607.696 1367.75 606.701C1366.12 605.701 1364.35 604.902 1362.94 604.304C1362.99 604.171 1363.03 603.903 1363.03 603.703C1363.08 603.438 1363.03 603.105 1362.85 602.772C1362.62 602.44 1362.21 602.107 1361.76 601.841C1361.31 601.642 1360.85 601.375 1360.54 601.242L1360.49 600.71C1360.58 600.642 1360.67 600.576 1360.72 600.509C1360.76 600.442 1360.85 600.309 1360.85 600.243C1360.85 600.11 1360.76 599.976 1360.67 599.912C1360.63 599.777 1360.54 599.711 1360.4 599.711V599.178C1360.49 599.178 1360.54 599.112 1360.58 599.045C1360.63 598.979 1360.67 598.91 1360.67 598.78C1360.67 598.712 1360.63 598.645 1360.58 598.579C1360.49 598.512 1360.45 598.444 1360.35 598.379L1360.31 597.847L1360.08 593.987C1360.08 593.921 1360.03 593.852 1359.95 593.852C1359.9 593.852 1359.85 593.921 1359.85 593.987L1359.58 597.847V598.379C1359.49 598.444 1359.4 598.512 1359.35 598.579C1359.31 598.645 1359.26 598.712 1359.26 598.78C1359.26 598.91 1359.31 598.979 1359.35 599.045C1359.4 599.112 1359.45 599.178 1359.49 599.178V599.711C1359.4 599.711 1359.31 599.777 1359.22 599.912C1359.13 599.976 1359.08 600.111 1359.08 600.243C1359.08 600.309 1359.13 600.442 1359.22 600.509C1359.22 600.576 1359.31 600.642 1359.4 600.71V601.242C1359.04 601.375 1358.58 601.642 1358.17 601.841C1357.67 602.107 1357.31 602.44 1357.08 602.772C1356.86 603.105 1356.86 603.373 1356.86 603.703C1356.86 603.903 1356.95 604.171 1357.04 604.304C1355.54 604.902 1353.77 605.701 1352.14 606.701C1350.5 607.696 1349.05 608.829 1348.33 610.027C1346.78 612.621 1347.55 615.151 1348.14 616.484H1347.09C1346.51 616.484 1346.01 616.814 1346.01 617.282C1346.01 617.68 1346.51 618.078 1347.09 618.078H1347.96V625.467C1347.05 625.599 1346.32 626.265 1346.32 626.998C1346.32 627.53 1346.78 627.929 1347.32 628.195V634.186H1342.83V626.266H1336.61V624.337H1337.15C1337.7 624.337 1338.15 624.002 1338.15 623.603C1338.15 623.139 1337.7 622.806 1337.15 622.806H1336.61C1337.61 621.075 1340.24 615.483 1336.84 609.827C1335.52 607.565 1332.84 605.501 1329.8 603.638C1326.8 601.841 1323.53 600.309 1320.86 599.178C1320.99 598.911 1321.08 598.513 1321.13 598.046C1321.17 597.58 1321.08 596.982 1320.72 596.383C1320.35 595.783 1319.54 595.184 1318.72 594.718C1317.9 594.252 1317.08 593.853 1316.45 593.586L1316.36 592.59C1316.54 592.455 1316.72 592.389 1316.81 592.189C1316.9 592.056 1316.99 591.856 1316.99 591.656C1316.99 591.455 1316.9 591.257 1316.77 591.058C1316.63 590.925 1316.45 590.792 1316.27 590.725L1316.22 589.794C1316.36 589.727 1316.45 589.593 1316.54 589.527C1316.63 589.394 1316.68 589.261 1316.68 589.061C1316.68 588.929 1316.63 588.729 1316.49 588.594C1316.4 588.463 1316.27 588.395 1316.13 588.33L1316.09 587.331L1315.63 580.144C1315.63 580.076 1315.54 580.009 1315.4 579.943C1315.27 579.943 1315.18 580.009 1315.18 580.144L1314.73 587.331L1314.68 588.33C1314.54 588.395 1314.36 588.463 1314.27 588.594C1314.18 588.729 1314.09 588.929 1314.09 589.061C1314.09 589.261 1314.18 589.394 1314.27 589.527C1314.36 589.594 1314.45 589.727 1314.59 589.794L1314.54 590.725C1314.31 590.792 1314.18 590.925 1314 591.058C1313.91 591.257 1313.82 591.455 1313.82 591.656C1313.82 591.856 1313.91 592.056 1314 592.189C1314.09 592.39 1314.23 592.455 1314.41 592.59L1314.36 593.586C1313.73 593.852 1312.86 594.252 1312.09 594.718C1311.23 595.184 1310.46 595.783 1310.09 596.383C1309.73 596.982 1309.64 597.58 1309.64 598.046C1309.73 598.513 1309.82 598.91 1309.95 599.178C1307.28 600.309 1303.97 601.841 1301.01 603.638C1297.97 605.5 1295.29 607.564 1293.93 609.827C1290.57 615.483 1293.16 621.075 1294.2 622.806H1293.66C1293.11 622.806 1292.61 623.139 1292.61 623.603C1292.61 624.002 1293.11 624.337 1293.66 624.337H1293.89V626.266H1287.98V634.186H1285.4L1285.35 614.419H1286.76C1287.71 614.419 1288.48 613.819 1288.48 613.155C1288.48 612.424 1287.71 611.891 1286.76 611.891H1285.31L1285.17 592.923H1285.67C1286.48 592.923 1287.21 592.456 1287.21 591.857C1287.21 591.192 1286.48 590.726 1285.67 590.726H1285.12L1285.03 575.352H1285.67C1286.39 575.352 1287.03 574.887 1287.03 574.354C1287.03 573.888 1286.57 573.488 1285.98 573.423V570.36L1286.03 570.227C1285.98 570.161 1285.98 570.095 1285.98 570.027V568.764H1286.53C1286.94 568.764 1287.21 568.563 1287.21 568.297C1287.21 568.03 1286.94 567.765 1286.53 567.765H1285.76C1286.12 566.965 1286.62 565.369 1285.67 563.772C1285.22 563.04 1284.3 562.306 1283.27 561.708C1282.26 561.043 1281.13 560.576 1280.22 560.177C1280.27 560.112 1280.31 559.978 1280.31 559.778C1280.31 559.645 1280.31 559.447 1280.22 559.245C1280.04 558.979 1279.81 558.78 1279.49 558.646C1279.22 558.514 1278.95 558.381 1278.77 558.314L1278.72 557.915C1278.77 557.915 1278.85 557.849 1278.85 557.781C1278.9 557.781 1278.95 557.715 1278.95 557.648C1278.95 557.582 1278.9 557.514 1278.85 557.448C1278.81 557.382 1278.77 557.315 1278.68 557.315V556.983C1278.72 556.983 1278.77 556.917 1278.77 556.917C1278.81 556.849 1278.85 556.782 1278.85 556.715C1278.85 556.715 1278.81 556.649 1278.77 556.582C1278.77 556.517 1278.68 556.517 1278.63 556.517V556.184L1278.49 553.721C1278.49 553.721 1278.45 553.654 1278.41 553.654C1278.36 553.654 1278.31 553.721 1278.31 553.721L1278.17 556.184L1278.13 556.517C1278.08 556.517 1278.04 556.517 1278.04 556.582C1277.95 556.649 1277.95 556.715 1277.95 556.715C1277.95 556.782 1277.95 556.849 1277.99 556.917C1278.04 556.917 1278.04 556.983 1278.13 556.983V557.315C1278.04 557.315 1277.95 557.382 1277.95 557.448C1277.86 557.514 1277.86 557.582 1277.86 557.648C1277.86 557.715 1277.86 557.781 1277.95 557.781C1277.95 557.849 1277.99 557.915 1278.04 557.915V558.314C1277.81 558.381 1277.54 558.515 1277.27 558.646C1276.95 558.78 1276.72 558.979 1276.59 559.245C1276.5 559.447 1276.45 559.645 1276.45 559.778C1276.45 559.978 1276.5 560.112 1276.54 560.177C1275.63 560.576 1274.5 561.043 1273.5 561.708C1272.5 562.306 1271.59 563.039 1271.14 563.772C1270.14 565.369 1270.64 566.965 1271 567.765H1270.37C1269.96 567.765 1269.68 568.029 1269.68 568.297C1269.68 568.564 1269.96 568.764 1270.37 568.764H1270.91V573.423C1270.32 573.488 1269.87 573.888 1269.87 574.354C1269.87 574.887 1270.5 575.352 1271.23 575.352H1271.86L1271.78 590.726H1271.23C1270.41 590.726 1269.68 591.192 1269.68 591.857C1269.68 592.456 1270.41 592.923 1271.23 592.923H1271.73L1271.59 611.891H1270.14C1269.18 611.891 1268.42 612.424 1268.42 613.155C1268.42 613.82 1269.19 614.419 1270.14 614.419H1271.59L1271.5 648.695H1266.6V646.764H1267.1C1267.69 646.764 1268.14 646.431 1268.14 646.032C1268.14 645.567 1267.69 645.234 1267.1 645.234H1266.56C1267.6 643.503 1270.23 637.913 1266.83 632.255C1265.51 629.992 1262.78 627.929 1259.74 626.067C1256.79 624.268 1253.52 622.739 1250.8 621.606C1250.93 621.34 1251.07 620.939 1251.07 620.542C1251.12 620.008 1251.03 619.411 1250.71 618.811C1250.3 618.212 1249.53 617.612 1248.71 617.148C1247.89 616.681 1247.08 616.281 1246.44 616.015L1246.35 615.018C1246.53 614.885 1246.67 614.817 1246.76 614.618C1246.89 614.484 1246.99 614.285 1246.99 614.087C1246.99 613.885 1246.89 613.685 1246.71 613.486C1246.62 613.353 1246.44 613.219 1246.26 613.153L1246.17 612.221C1246.3 612.155 1246.44 612.022 1246.49 611.955C1246.62 611.822 1246.62 611.69 1246.62 611.49C1246.62 611.357 1246.58 611.156 1246.44 611.024C1246.35 610.891 1246.26 610.825 1246.08 610.759L1246.03 609.76L1245.58 602.573C1245.58 602.506 1245.49 602.44 1245.35 602.372C1245.26 602.372 1245.17 602.44 1245.17 602.573L1244.72 609.76L1244.62 610.759C1244.49 610.826 1244.35 610.892 1244.26 611.024C1244.17 611.156 1244.08 611.357 1244.08 611.49C1244.08 611.69 1244.12 611.822 1244.26 611.955C1244.31 612.023 1244.45 612.156 1244.53 612.221L1244.49 613.153C1244.26 613.219 1244.12 613.354 1243.99 613.486C1243.85 613.685 1243.76 613.885 1243.76 614.087C1243.76 614.285 1243.8 614.484 1243.99 614.618C1244.08 614.818 1244.17 614.885 1244.35 615.018L1244.31 616.015C1243.67 616.28 1242.81 616.681 1242.04 617.148C1241.17 617.612 1240.4 618.212 1240.04 618.811C1239.72 619.411 1239.63 620.008 1239.63 620.542C1239.63 620.939 1239.81 621.34 1239.9 621.606C1237.22 622.739 1233.91 624.268 1230.96 626.067C1227.92 627.929 1225.24 629.991 1223.92 632.255C1220.52 637.913 1223.1 643.503 1224.19 645.234H1223.6C1223.01 645.234 1222.56 645.567 1222.56 646.032C1222.56 646.431 1223.01 646.764 1223.6 646.764H1223.83V648.695C1218.97 642.539 1202.55 641.627 1197.05 650.129L1196.98 640.675H1197.52C1198.39 640.675 1199.11 640.139 1199.11 639.5C1199.11 638.861 1198.39 638.332 1197.52 638.332H1196.95L1196.82 622.064H1197.52C1198.29 622.064 1198.93 621.602 1198.93 621.029C1198.93 620.531 1198.45 620.117 1197.83 620.014V615.142H1198.44C1198.83 615.142 1199.16 614.897 1199.16 614.597C1199.16 614.306 1198.83 614.069 1198.44 614.069H1197.61C1198.01 613.195 1198.52 611.522 1197.49 609.819C1197 609.028 1196.06 608.276 1194.95 607.618C1193.9 606.979 1192.72 606.433 1191.77 606.038C1191.81 605.926 1191.85 605.794 1191.86 605.633C1191.87 605.436 1191.85 605.229 1191.72 605.024C1191.59 604.798 1191.31 604.59 1191 604.42C1190.72 604.261 1190.41 604.129 1190.19 604.036L1190.18 603.668C1190.23 603.631 1190.28 603.583 1190.31 603.536C1190.36 603.472 1190.38 603.406 1190.38 603.34C1190.38 603.262 1190.36 603.179 1190.31 603.124C1190.26 603.067 1190.2 603.029 1190.13 602.99L1190.1 602.672C1190.15 602.642 1190.19 602.606 1190.22 602.558C1190.26 602.521 1190.28 602.464 1190.28 602.407C1190.28 602.352 1190.26 602.286 1190.21 602.239C1190.18 602.201 1190.13 602.163 1190.08 602.125L1190.05 601.786L1189.9 599.211C1189.9 599.182 1189.87 599.155 1189.82 599.155C1189.77 599.155 1189.74 599.173 1189.73 599.211L1189.58 601.786L1189.56 602.125C1189.5 602.164 1189.45 602.202 1189.42 602.239C1189.37 602.286 1189.36 602.351 1189.36 602.407C1189.36 602.464 1189.37 602.521 1189.41 602.558C1189.44 602.606 1189.49 602.642 1189.51 602.672L1189.5 602.99C1189.44 603.029 1189.36 603.067 1189.33 603.124C1189.27 603.179 1189.24 603.263 1189.24 603.34C1189.24 603.406 1189.27 603.472 1189.32 603.536C1189.35 603.583 1189.41 603.631 1189.46 603.668L1189.44 604.036C1189.21 604.129 1188.9 604.261 1188.63 604.42C1188.32 604.59 1188.04 604.798 1187.92 605.024C1187.78 605.229 1187.76 605.437 1187.77 605.633C1187.77 605.794 1187.82 605.926 1187.87 606.038C1186.91 606.433 1185.73 606.98 1184.66 607.618C1183.58 608.277 1182.61 609.029 1182.14 609.819C1181.12 611.521 1181.61 613.195 1182.02 614.069H1181.33C1180.92 614.069 1180.58 614.306 1180.58 614.597C1180.58 614.896 1180.92 615.142 1181.33 615.142H1181.89V620.014C1181.27 620.126 1180.81 620.54 1180.81 621.029C1180.81 621.602 1181.47 622.064 1182.25 622.064H1182.92L1182.79 638.332H1182.25C1181.36 638.332 1180.63 638.86 1180.63 639.5C1180.63 640.14 1181.36 640.675 1182.25 640.675H1182.79L1182.66 655.151C1176.32 645.539 1163.34 638.737 1148.08 637.929V636.795C1148.08 636.612 1147.98 636.434 1147.81 636.304C1147.63 636.172 1147.39 636.101 1147.14 636.101H1146.36L1145.75 624.459C1149.2 623.406 1151.87 621.146 1152.56 618.254C1153.38 614.82 1151.19 611.516 1147.39 609.783C1149.02 611.505 1149.74 613.678 1149.21 615.91C1148.14 620.415 1142.27 623.43 1136.13 622.64C1134.66 622.452 1133.31 622.063 1132.11 621.521C1133.78 623.288 1136.37 624.583 1139.48 624.983C1141.42 625.233 1143.3 625.068 1145.03 624.634L1144.41 636.101H1143.65C1143.12 636.101 1142.68 636.423 1142.68 636.816V637.906C1126.22 638.582 1112.33 646.228 1106.4 656.896C1105.57 656.2 1104.59 655.538 1103.57 654.908C1101.57 653.694 1099.37 652.659 1097.52 651.895C1097.62 651.715 1097.71 651.444 1097.71 651.176C1097.74 650.816 1097.68 650.412 1097.46 650.006C1097.19 649.601 1096.67 649.196 1096.11 648.882C1095.56 648.566 1095.01 648.298 1094.58 648.116L1094.52 647.443C1094.64 647.354 1094.73 647.308 1094.79 647.173C1094.89 647.084 1094.95 646.948 1094.95 646.814C1094.95 646.678 1094.89 646.543 1094.76 646.408C1094.7 646.319 1094.58 646.229 1094.46 646.183L1094.39 645.553C1094.49 645.509 1094.58 645.418 1094.61 645.373C1094.7 645.283 1094.7 645.194 1094.7 645.059C1094.7 644.968 1094.67 644.832 1094.58 644.745C1094.51 644.654 1094.46 644.61 1094.33 644.564L1094.3 643.89L1094 639.033C1094 638.988 1093.93 638.944 1093.84 638.897C1093.78 638.897 1093.72 638.944 1093.72 639.033L1093.41 643.89L1093.35 644.564C1093.26 644.611 1093.17 644.654 1093.11 644.745C1093.04 644.832 1092.98 644.968 1092.98 645.059C1092.98 645.194 1093.01 645.283 1093.11 645.373C1093.14 645.419 1093.23 645.509 1093.29 645.553L1093.26 646.183C1093.11 646.229 1093.01 646.319 1092.92 646.408C1092.83 646.543 1092.77 646.678 1092.77 646.814C1092.77 646.948 1092.8 647.083 1092.92 647.173C1092.98 647.309 1093.04 647.354 1093.17 647.443L1093.14 648.116C1092.71 648.298 1092.12 648.567 1091.61 648.882C1091.02 649.196 1090.5 649.601 1090.25 650.006C1090.04 650.411 1089.98 650.816 1089.98 651.176C1089.98 651.444 1090.1 651.715 1090.16 651.895C1088.35 652.659 1086.11 653.694 1084.12 654.908C1082.06 656.168 1080.25 657.561 1079.36 659.091C1078.79 660.033 1078.48 660.971 1078.32 661.87C1072.35 660.169 1067.3 658.013 1063.26 655.492C1063.43 655.251 1063.55 654.992 1063.55 654.699C1063.55 653.985 1062.95 653.37 1062.1 653.097L1061.5 646.181H1060.79L1060.18 653.097C1059.34 653.369 1058.75 653.985 1058.75 654.699C1058.75 654.992 1058.86 655.25 1059.03 655.492C1054.62 658.229 1048.95 660.586 1042.3 662.336C1032.09 665.016 1025.27 669.816 1025.27 675.3C1025.27 676.87 1025.83 678.389 1026.87 679.811H1022.87V667.186H1023.11C1023.79 667.186 1024.34 666.786 1024.34 666.286V665.774C1024.34 665.282 1023.79 664.874 1023.11 664.874H1021.5C1021.57 664.54 1021.61 664.209 1021.61 663.854C1021.61 661.447 1019.87 659.332 1017.27 658.154C1015.64 657.425 1014.26 656.477 1013.17 655.359C1013.38 655.217 1013.5 655.014 1013.5 654.793C1013.5 654.48 1013.25 654.204 1012.87 654.089L1012.6 651.043H1012.29L1012.03 654.089C1011.65 654.204 1011.4 654.48 1011.4 654.793C1011.4 655.014 1011.52 655.216 1011.73 655.359C1010.63 656.472 1009.24 657.427 1007.64 658.154C1005.03 659.332 1003.29 661.447 1003.29 663.854C1003.29 664.21 1003.33 664.54 1003.41 664.874H1001.74C1001.06 664.874 1000.52 665.282 1000.52 665.774V666.286C1000.52 666.786 1001.06 667.186 1001.74 667.186H1002.02V680.425C1000.64 676.921 997.039 674.116 992.383 672.877C992.39 672.82 992.406 672.767 992.406 672.709C992.406 671.024 990.94 669.607 988.895 669.062L988.146 667.4C988.294 667.249 988.395 667.074 988.395 666.877C988.395 666.496 988.075 666.175 987.633 666.024L987.167 660.778C987.167 660.755 987.129 660.737 987.09 660.737C987.064 660.737 987.028 660.754 987.028 660.778L986.563 666.024C986.124 666.174 985.806 666.496 985.806 666.877C985.806 667.075 985.904 667.247 986.042 667.396L985.299 669.062C983.256 669.608 981.793 671.028 981.793 672.709C981.793 672.766 981.811 672.82 981.811 672.877C975.836 674.467 971.539 678.629 971.539 683.562C971.539 684.743 971.848 685.863 972.305 686.937H966.932V688.662H966.384V753.133H1521.69V586.243ZM1006.73 679.929H1003.35V672.943C1003.35 671.163 1004.06 669.668 1005.03 669.219C1006.01 669.668 1006.73 671.163 1006.73 672.943V679.929ZM1016.72 679.811H1014.66V679.929H1008.18V672.201C1008.18 670.236 1010 668.583 1012.45 668.078C1014.92 668.583 1016.72 670.236 1016.72 672.201L1016.72 679.811ZM1021.53 679.811H1018.15V672.943C1018.15 671.163 1018.86 669.668 1019.84 669.219C1020.81 669.668 1021.53 671.163 1021.53 672.943V679.811H1021.53ZM1192.49 618.076V619.985H1187.23V618.076C1187.23 618.076 1187.2 617.925 1187.39 617.737C1187.6 617.548 1187.51 617.399 1187.43 617.211C1186.84 616.007 1189.55 616.065 1189.87 615.142C1190.18 616.064 1192.89 616.006 1192.31 617.211C1192.21 617.399 1192.13 617.548 1192.33 617.737C1192.54 617.925 1192.49 618.076 1192.49 618.076ZM1275.45 572.95V569.426C1275.45 568.088 1276.69 566.963 1278.36 566.618C1280.04 566.963 1281.27 568.088 1281.27 569.426V572.87L1281.27 572.95H1275.45ZM1354.55 622.524H1351.17V617.036C1351.17 615.256 1351.89 613.762 1352.85 613.312C1353.83 613.762 1354.55 615.256 1354.55 617.036V622.524ZM1355.83 622.518V617.341C1355.83 615.376 1357.64 613.723 1360.09 613.218C1362.56 613.723 1364.37 615.376 1364.37 617.341V622.399L1364.37 622.518H1355.83ZM1369.35 622.541H1365.97V617.037C1365.97 615.257 1366.68 613.763 1367.66 613.313C1368.63 613.763 1369.35 615.257 1369.35 617.037V622.541H1369.35Z" fill="#0E9F6E"/>
<path fill-rule="evenodd" clip-rule="evenodd" d="M1336.76 672.919C1337.31 671.153 1337.68 669.314 1337.68 667.371C1337.68 659.26 1332.53 652.42 1325.36 649.805C1325.36 649.714 1325.38 649.624 1325.38 649.53C1325.38 646.767 1323.63 644.432 1321.18 643.537L1320.29 640.798C1320.46 640.553 1320.57 640.27 1320.57 639.947C1320.57 639.318 1320.19 638.789 1319.66 638.541L1319.11 629.92C1319.11 629.88 1319.06 629.852 1319.03 629.852C1318.98 629.852 1318.94 629.879 1318.94 629.92L1318.38 638.541C1317.85 638.789 1317.46 639.317 1317.46 639.947C1317.46 640.27 1317.59 640.556 1317.76 640.806L1316.87 643.537C1314.41 644.432 1312.66 646.761 1312.66 649.53C1312.66 649.624 1312.68 649.714 1312.68 649.805C1307.1 651.842 1302.78 656.455 1301.13 662.214V640.45H1301.46C1302.27 640.45 1302.93 639.792 1302.93 638.97V638.13C1302.93 637.32 1302.27 636.653 1301.46 636.653H1299.46C1299.55 636.103 1299.61 635.56 1299.61 634.975C1299.61 631.019 1297.52 627.542 1294.39 625.605C1292.47 624.408 1290.81 622.839 1289.49 621.009C1289.73 620.776 1289.89 620.444 1289.89 620.081C1289.89 619.565 1289.58 619.111 1289.13 618.92L1288.81 613.915H1288.44L1288.11 618.92C1287.66 619.111 1287.36 619.565 1287.36 620.081C1287.36 620.445 1287.5 620.776 1287.75 621.009C1286.45 622.846 1284.79 624.405 1282.85 625.605C1279.72 627.54 1277.63 631.019 1277.63 634.975C1277.63 635.56 1277.69 636.103 1277.77 636.653H1275.84C1275.02 636.653 1274.36 637.321 1274.36 638.13V638.97C1274.36 639.793 1275.02 640.45 1275.84 640.45H1276.12V661.202H1271.33C1272.57 658.866 1273.25 656.367 1273.25 653.786C1273.25 644.773 1265.07 636.882 1252.82 632.476C1244.85 629.598 1238.06 625.725 1232.76 621.226C1232.97 620.829 1233.1 620.403 1233.1 619.925C1233.1 618.749 1232.4 617.738 1231.38 617.292L1230.66 605.922H1229.81L1229.09 617.292C1228.07 617.738 1227.35 618.749 1227.35 619.925C1227.35 620.403 1227.5 620.829 1227.7 621.226C1222.85 625.369 1216.8 628.913 1209.64 631.711C1209.45 630.234 1209.07 628.69 1208.39 627.142C1207.32 624.626 1205.15 622.337 1202.69 620.265C1200.3 618.271 1197.61 616.567 1195.44 615.312C1195.52 615.016 1195.66 614.573 1195.66 614.131C1195.66 613.539 1195.59 612.872 1195.34 612.209C1195.04 611.542 1194.41 610.877 1193.71 610.361C1193.09 609.84 1192.39 609.398 1191.87 609.102L1191.84 607.994C1191.99 607.847 1192.06 607.772 1192.13 607.55C1192.28 607.404 1192.32 607.178 1192.32 606.96C1192.32 606.738 1192.24 606.514 1192.13 606.291C1192.02 606.145 1191.91 605.996 1191.73 605.922L1191.69 604.887C1191.76 604.814 1191.87 604.667 1191.91 604.591C1192.03 604.442 1192.06 604.297 1192.06 604.073C1192.06 603.926 1191.99 603.702 1191.91 603.559C1191.84 603.408 1191.73 603.336 1191.62 603.259L1191.55 602.151L1191.18 594.168C1191.18 594.023 1191.11 593.946 1191.03 593.946C1190.92 594.021 1190.85 594.095 1190.85 594.168L1190.48 602.151L1190.44 603.259C1190.29 603.336 1190.22 603.408 1190.15 603.559C1190.04 603.702 1190 603.926 1190 604.073C1190 604.297 1190 604.442 1190.11 604.591C1190.15 604.667 1190.26 604.816 1190.37 604.887L1190.29 605.922C1190.15 605.996 1190 606.145 1189.93 606.291C1189.78 606.514 1189.71 606.738 1189.71 606.96C1189.71 607.18 1189.78 607.404 1189.89 607.55C1189.97 607.773 1190.07 607.847 1190.22 607.994L1190.15 609.102C1189.63 609.398 1188.97 609.84 1188.31 610.361C1187.65 610.877 1187.02 611.542 1186.69 612.209C1186.43 612.872 1186.36 613.538 1186.4 614.131C1186.4 614.573 1186.51 615.016 1186.62 615.312C1184.41 616.567 1181.76 618.271 1179.37 620.265C1178.14 621.301 1176.97 622.391 1175.98 623.533C1168.86 605.996 1152.21 593.429 1132.47 592.318V590.527C1132.47 589.88 1131.95 589.351 1131.31 589.351H1130.39L1129.65 570.503C1131.73 571.216 1133.99 571.486 1136.3 571.077C1140.04 570.417 1143.14 568.291 1145.14 565.384C1143.7 566.277 1142.09 566.916 1140.32 567.226C1132.96 568.522 1125.92 563.565 1124.64 556.161C1124 552.494 1124.87 548.921 1126.81 546.09C1122.26 548.939 1119.63 554.371 1120.62 560.015C1121.45 564.769 1124.66 568.485 1128.79 570.217L1128.06 589.352H1127.13C1126.82 589.352 1126.54 589.471 1126.32 589.685C1126.11 589.9 1125.99 590.193 1125.99 590.492V592.359C1107.69 593.687 1092.13 604.868 1084.53 620.667L1084.37 596.872H1085.02C1086.08 596.872 1086.96 595.989 1086.96 594.941C1086.96 593.888 1086.08 593.021 1085.02 593.021H1084.37L1084.22 566.278H1085.02C1085.96 566.278 1086.74 565.516 1086.74 564.577C1086.74 563.772 1086.19 563.092 1085.45 562.905V554.899H1086.13C1086.62 554.899 1087.02 554.494 1087.02 554.004C1087.02 553.524 1086.62 553.134 1086.13 553.134H1085.29C1085.79 551.699 1086.37 548.948 1085.16 546.148C1084.59 544.849 1083.42 543.614 1082.13 542.53C1080.85 541.48 1079.43 540.582 1078.28 539.933C1078.34 539.749 1078.4 539.531 1078.4 539.267C1078.42 538.943 1078.39 538.6 1078.22 538.265C1078.08 537.892 1077.74 537.552 1077.37 537.274C1077.05 537.011 1076.68 536.795 1076.4 536.641L1076.37 536.037C1076.43 535.976 1076.51 535.898 1076.54 535.82C1076.61 535.713 1076.64 535.607 1076.64 535.498C1076.64 535.37 1076.61 535.233 1076.53 535.141C1076.5 535.047 1076.4 534.985 1076.33 534.923L1076.31 534.398C1076.34 534.349 1076.4 534.289 1076.43 534.21C1076.48 534.151 1076.5 534.056 1076.5 533.965C1076.5 533.872 1076.48 533.764 1076.42 533.689C1076.39 533.625 1076.33 533.564 1076.25 533.5L1076.23 532.943L1076.05 528.71C1076.04 528.648 1076.01 528.618 1075.94 528.618C1075.88 528.618 1075.85 528.663 1075.85 528.71L1075.67 532.943L1075.64 533.5C1075.57 533.565 1075.51 533.625 1075.48 533.689C1075.42 533.764 1075.39 533.872 1075.39 533.965C1075.39 534.056 1075.42 534.151 1075.46 534.21C1075.5 534.289 1075.54 534.349 1075.61 534.398L1075.57 534.923C1075.48 534.985 1075.42 535.047 1075.36 535.141C1075.3 535.233 1075.27 535.369 1075.27 535.498C1075.27 535.607 1075.3 535.713 1075.36 535.82C1075.39 535.896 1075.45 535.976 1075.51 536.037L1075.5 536.641C1075.23 536.795 1074.86 537.012 1074.53 537.274C1074.16 537.552 1073.82 537.893 1073.66 538.265C1073.51 538.6 1073.48 538.943 1073.5 539.267C1073.51 539.531 1073.56 539.748 1073.6 539.933C1072.46 540.582 1071.05 541.48 1069.79 542.53C1068.46 543.613 1067.33 544.849 1066.74 546.148C1065.51 548.948 1066.12 551.699 1066.6 553.134H1065.6C1065.14 553.134 1064.74 553.523 1064.74 554.004C1064.74 554.494 1065.14 554.899 1065.6 554.899H1066.34V562.905C1065.59 563.078 1065.02 563.758 1065.02 564.577C1065.02 565.516 1065.79 566.278 1066.71 566.278H1067.54L1067.39 593.021H1066.71C1065.66 593.021 1064.8 593.888 1064.8 594.941C1064.8 595.989 1065.66 596.872 1066.71 596.872H1067.35L1067.27 612.412C1060.67 598.436 1040.98 599.935 1035.16 610.055V606.882H1035.43C1036.14 606.882 1036.68 606.334 1036.68 605.677C1036.68 604.912 1036.14 604.364 1035.43 604.364H1034.73C1036.03 601.521 1039.13 592.33 1035.05 583.03C1033.47 579.309 1030.26 575.918 1026.61 572.857C1023.07 569.898 1019.1 567.387 1015.89 565.525C1016 565.087 1016.21 564.429 1016.21 563.777C1016.21 562.899 1016.1 561.916 1015.73 560.932C1015.29 559.947 1014.36 558.962 1013.33 558.198C1012.4 557.432 1011.37 556.774 1010.61 556.336L1010.55 554.699C1010.77 554.478 1010.88 554.369 1010.99 554.04C1011.21 553.82 1011.26 553.492 1011.26 553.165C1011.26 552.835 1011.15 552.507 1010.99 552.179C1010.83 551.962 1010.66 551.741 1010.39 551.631L1010.33 550.1C1010.44 549.99 1010.61 549.774 1010.66 549.662C1010.83 549.443 1010.88 549.226 1010.88 548.897C1010.88 548.68 1010.77 548.347 1010.66 548.132C1010.55 547.912 1010.39 547.804 1010.23 547.695L1010.12 546.055L1009.57 534.239C1009.57 534.019 1009.46 533.908 1009.36 533.908C1009.19 534.02 1009.08 534.129 1009.08 534.239L1008.54 546.055L1008.48 547.695C1008.26 547.804 1008.16 547.914 1008.05 548.132C1007.88 548.347 1007.83 548.68 1007.83 548.897C1007.83 549.225 1007.83 549.443 1007.99 549.662C1008.05 549.774 1008.21 549.99 1008.37 550.1L1008.26 551.631C1008.05 551.741 1007.83 551.962 1007.72 552.179C1007.5 552.507 1007.39 552.835 1007.39 553.165C1007.39 553.491 1007.5 553.82 1007.67 554.04C1007.78 554.368 1007.94 554.478 1008.16 554.699L1008.05 556.336C1007.29 556.774 1006.31 557.432 1005.33 558.198C1004.35 558.964 1003.42 559.947 1002.93 560.932C1002.55 561.916 1002.44 562.899 1002.49 563.777C1002.49 564.429 1002.66 565.087 1002.82 565.525C999.554 567.388 995.634 569.9 992.101 572.857C988.451 575.918 985.183 579.309 983.602 583.03C979.521 592.33 982.678 601.521 983.926 604.364H983.277C982.567 604.364 982.022 604.912 982.022 605.677C982.022 606.334 982.567 606.882 983.277 606.882H983.873V610.055H978L977.887 553.709H979.628C980.775 553.709 981.696 552.726 981.696 551.633C981.696 550.432 980.775 549.556 979.628 549.556H977.887L977.725 518.375H978.325C979.303 518.375 980.176 517.608 980.176 516.623C980.176 515.53 979.304 514.764 978.325 514.764H977.665L977.562 489.492H978.325C979.197 489.492 979.956 488.727 979.956 487.851C979.956 487.085 979.408 486.427 978.702 486.321V478.662H979.358C979.846 478.662 980.176 478.332 980.176 477.894C980.176 477.456 979.847 477.02 979.358 477.02H978.598C979.029 475.705 979.627 473.082 978.434 470.457C977.886 469.252 976.797 468.048 975.6 467.065C974.4 465.972 973.04 465.204 971.952 464.548C972.007 464.439 972.062 464.22 972.062 463.89C972.062 463.671 972.007 463.347 971.894 463.014C971.731 462.577 971.462 462.25 971.081 462.031C970.756 461.813 970.425 461.596 970.151 461.484V460.828C970.211 460.828 970.264 460.72 970.264 460.608C970.371 460.608 970.371 460.499 970.371 460.388C970.371 460.28 970.371 460.169 970.264 460.062C970.264 459.952 970.151 459.843 970.048 459.843V459.297C970.151 459.297 970.151 459.189 970.211 459.189C970.264 459.077 970.264 458.967 970.264 458.857C970.264 458.857 970.264 458.749 970.151 458.637C970.151 458.53 970.101 458.53 970.048 458.53L969.993 457.982L969.825 453.934C969.825 453.934 969.772 453.825 969.715 453.825C969.662 453.825 969.61 453.934 969.61 453.934L969.447 457.982V458.53C969.391 458.53 969.282 458.53 969.282 458.637C969.228 458.749 969.176 458.857 969.176 458.857C969.176 458.967 969.228 459.077 969.282 459.189C969.282 459.189 969.336 459.297 969.391 459.297V459.843C969.282 459.843 969.228 459.952 969.176 460.062C969.116 460.17 969.066 460.282 969.066 460.388C969.066 460.499 969.116 460.608 969.176 460.608C969.176 460.72 969.282 460.828 969.336 460.828L969.282 461.484C969.066 461.596 968.737 461.813 968.411 462.031C968.028 462.252 967.757 462.577 967.539 463.014C967.429 463.346 967.429 463.671 967.429 463.89C967.429 464.219 967.484 464.439 967.539 464.548C966.449 465.204 965.088 465.972 963.886 467.065C962.639 468.048 961.546 469.252 961.003 470.457C959.866 473.082 960.465 475.705 960.899 477.02H959.971C959.479 477.02 959.155 477.456 959.155 477.894C959.155 478.332 959.479 478.662 959.971 478.662H960.627V480.739C960.627 480.85 960.627 480.958 960.567 481.068L960.627 481.285V486.321C959.92 486.427 959.373 487.085 959.373 487.851C959.373 488.727 960.135 489.492 961.003 489.492H961.771L961.66 514.764H961.003C960.026 514.764 959.155 515.53 959.155 516.623C959.155 517.608 960.026 518.375 961.003 518.375H961.602L961.44 549.556H959.695C958.561 549.556 957.628 550.432 957.628 551.633C957.628 552.726 958.561 553.709 959.695 553.709H961.389L961.331 586.205H958.227V573.185H951.147V570.014H951.424C952.075 570.014 952.675 569.464 952.675 568.806C952.675 568.044 952.075 567.496 951.424 567.496H950.77C952.019 564.651 955.12 555.458 951.094 546.16C949.466 542.441 946.253 539.05 942.603 535.988C939.062 533.034 935.09 530.514 931.88 528.655C932.041 528.216 932.149 527.562 932.256 526.795C932.256 526.03 932.148 525.047 931.711 524.061C931.278 523.076 930.353 522.091 929.317 521.327C928.394 520.559 927.358 519.902 926.596 519.466L926.541 517.828C926.756 517.605 926.921 517.5 927.034 517.168C927.141 516.951 927.251 516.62 927.251 516.292C927.251 515.962 927.141 515.635 927.034 515.31C926.814 515.09 926.652 514.874 926.379 514.762L926.324 513.233C926.486 513.121 926.596 512.903 926.703 512.791C926.814 512.573 926.921 512.355 926.921 512.026C926.921 511.808 926.814 511.48 926.703 511.258C926.595 511.043 926.379 510.932 926.217 510.824L926.157 509.184L925.615 497.368C925.615 497.148 925.507 497.04 925.345 497.04C925.177 497.15 925.074 497.259 925.074 497.368L924.527 509.184L924.474 510.824C924.306 510.932 924.144 511.044 924.035 511.258C923.871 511.48 923.816 511.808 923.816 512.026C923.816 512.354 923.871 512.573 923.982 512.791C924.094 512.903 924.202 513.121 924.363 513.233L924.306 514.762C924.093 514.874 923.871 515.09 923.709 515.31C923.545 515.635 923.438 515.962 923.438 516.292C923.438 516.619 923.545 516.951 923.653 517.168C923.763 517.498 923.98 517.605 924.2 517.828L924.093 519.466C923.329 519.902 922.345 520.559 921.365 521.327C920.384 522.092 919.406 523.076 918.974 524.061C918.536 525.047 918.429 526.031 918.481 526.795C918.536 527.562 918.644 528.216 918.805 528.655C915.598 530.514 911.676 533.034 908.085 535.988C904.433 539.05 901.225 542.441 899.643 546.16C895.566 555.458 898.719 564.651 899.916 567.496H899.267C898.61 567.496 898.063 568.044 898.063 568.806C898.063 569.464 898.61 570.014 899.267 570.014H899.916V573.185H892.46V586.205H887.071V576.357C887.723 575.92 888.27 575.264 888.27 574.39C888.27 573.185 887.398 572.089 886.309 571.874V559.726H887.344C888.047 559.726 888.647 559.072 888.647 558.418C888.647 557.648 888.047 557.105 887.344 557.105H886.091C886.801 554.914 887.722 550.756 885.869 546.491C884.997 544.519 883.255 542.659 881.297 541.022C879.335 539.379 877.214 538.063 875.419 537.082C875.531 536.863 875.637 536.423 875.637 536.095C875.637 535.552 875.637 535.113 875.364 534.565C875.09 534.02 874.656 533.472 874.058 533.036C873.568 532.708 873.025 532.268 872.588 532.051V531.176C872.699 531.064 872.803 530.957 872.803 530.848C872.914 530.736 872.967 530.517 872.967 530.41C872.967 530.191 872.914 529.97 872.803 529.865C872.699 529.643 872.588 529.536 872.479 529.536V528.66C872.534 528.66 872.589 528.551 872.644 528.44C872.7 528.334 872.753 528.219 872.753 528.006C872.753 527.895 872.7 527.786 872.644 527.678C872.589 527.567 872.479 527.455 872.368 527.349V526.474L872.046 520.129C872.046 520.021 871.989 519.907 871.934 519.907C871.831 519.907 871.77 520.021 871.77 520.129L871.497 526.474L871.445 527.349C871.332 527.457 871.282 527.568 871.175 527.678C871.12 527.787 871.062 527.896 871.062 528.006C871.062 528.221 871.12 528.334 871.175 528.44C871.227 528.551 871.282 528.66 871.39 528.66V529.536C871.227 529.536 871.12 529.644 871.063 529.865C870.955 529.97 870.845 530.191 870.845 530.41C870.845 530.517 870.955 530.736 871.007 530.848C871.063 530.958 871.176 531.065 871.282 531.176L871.227 532.051C870.845 532.269 870.302 532.708 869.757 533.036C869.217 533.472 868.723 534.02 868.446 534.565C868.236 535.113 868.176 535.661 868.236 536.095C868.236 536.423 868.285 536.865 868.344 537.082C866.656 538.063 864.528 539.379 862.574 541.022C860.607 542.658 858.867 544.519 857.995 546.491C856.145 550.756 857.015 554.914 857.776 557.105H856.252C855.549 557.105 854.948 557.648 854.948 558.418C854.948 559.072 855.549 559.726 856.252 559.726H857.345V571.874C856.252 572.089 855.385 573.185 855.385 574.39C855.385 575.264 855.874 575.919 856.473 576.357V586.205H856.392V585.782C851.726 553.252 831.718 526.277 781.754 506.102C756.056 495.72 743.314 481.612 737.076 471.254C743.057 468.627 747.242 462.638 747.242 455.661C747.242 447.346 741.306 440.436 733.463 438.949L733.186 431.444C735.352 430.496 736.869 428.333 736.869 425.808C736.869 423.125 735.149 420.867 732.762 420.026L732.098 402.02C739.692 403.658 747.786 403.378 755.666 400.708C767.504 396.691 776.514 388.216 781.565 377.769C777.349 381.396 772.41 384.276 766.835 386.167C743.497 394.071 718.168 381.462 710.291 358.014C706.388 346.393 707.476 334.323 712.405 324.133C698.98 335.692 693.116 354.675 699.124 372.554C704.107 387.409 716.116 397.891 730.176 401.584L729.083 419.917C726.517 420.65 724.626 422.996 724.626 425.808C724.626 428.364 726.18 430.555 728.389 431.482L727.95 438.825C719.716 439.982 713.373 447.066 713.373 455.659C713.373 462.941 717.933 469.136 724.334 471.565C718.03 481.894 705.283 495.825 679.843 506.101C633.292 524.898 612.734 549.598 606.373 579.196V576.356C606.971 575.919 607.461 575.263 607.461 574.389C607.461 573.184 606.593 572.088 605.501 571.873V559.725H606.593C607.297 559.725 607.896 559.071 607.896 558.417C607.896 557.647 607.298 557.104 606.593 557.104H605.069C605.831 554.913 606.7 550.754 604.85 546.49C603.977 544.518 602.238 542.658 600.272 541.021C598.318 539.378 596.191 538.062 594.503 537.081C594.559 536.862 594.61 536.421 594.61 536.093C594.669 535.66 594.61 535.112 594.399 534.564C594.125 534.019 593.63 533.471 593.088 533.035C592.544 532.707 592 532.266 591.619 532.05L591.564 531.174C591.672 531.063 591.783 530.956 591.838 530.846C591.89 530.735 592 530.516 592 530.409C592 530.189 591.89 529.968 591.783 529.864C591.727 529.642 591.619 529.535 591.456 529.535V528.659C591.564 528.659 591.619 528.55 591.672 528.439C591.727 528.332 591.783 528.218 591.783 528.004C591.783 527.894 591.727 527.785 591.672 527.676C591.564 527.566 591.513 527.454 591.401 527.347L591.349 526.473L591.075 520.128C591.075 520.02 591.017 519.906 590.912 519.906C590.858 519.906 590.801 520.02 590.801 520.128L590.48 526.473V527.347C590.369 527.455 590.257 527.567 590.202 527.676C590.147 527.786 590.095 527.895 590.095 528.004C590.095 528.219 590.147 528.332 590.202 528.439C590.257 528.55 590.314 528.659 590.369 528.659V529.535C590.257 529.535 590.147 529.643 590.043 529.864C589.932 529.968 589.88 530.189 589.88 530.409C589.88 530.516 589.932 530.735 590.043 530.846C590.043 530.957 590.147 531.064 590.257 531.174V532.05C589.821 532.268 589.277 532.707 588.788 533.035C588.189 533.471 587.756 534.019 587.481 534.564C587.209 535.112 587.209 535.55 587.209 536.093C587.209 536.421 587.315 536.863 587.426 537.081C585.632 538.062 583.511 539.378 581.549 541.021C579.589 542.657 577.848 544.518 576.979 546.49C575.125 550.754 576.046 554.913 576.756 557.104H575.502C574.799 557.104 574.199 557.647 574.199 558.417C574.199 559.071 574.798 559.725 575.502 559.725H576.539V571.873C575.451 572.088 574.577 573.184 574.577 574.389C574.577 575.263 575.125 575.918 575.776 576.356V586.204H570.388V573.184H562.93V570.012H563.582C564.237 570.012 564.785 569.462 564.785 568.805C564.785 568.042 564.237 567.495 563.582 567.495H562.93C564.129 564.65 567.283 555.457 563.204 546.159C561.624 542.44 558.415 539.048 554.763 535.987C551.172 533.033 547.25 530.513 544.044 528.654C544.204 528.215 544.311 527.561 544.366 526.794C544.419 526.028 544.313 525.046 543.874 524.06C543.441 523.075 542.464 522.089 541.483 521.326C540.502 520.558 539.517 519.901 538.756 519.465L538.648 517.826C538.867 517.604 539.086 517.498 539.196 517.167C539.303 516.949 539.411 516.619 539.411 516.291C539.411 515.961 539.303 515.634 539.141 515.309C538.978 515.089 538.756 514.873 538.543 514.761L538.487 513.232C538.649 513.12 538.757 512.901 538.868 512.79C538.979 512.572 539.034 512.354 539.034 512.024C539.034 511.807 538.979 511.479 538.813 511.257C538.706 511.042 538.543 510.931 538.376 510.823L538.324 509.182L537.777 497.367C537.777 497.258 537.673 497.147 537.506 497.039C537.344 497.039 537.236 497.148 537.236 497.367L536.692 509.182L536.633 510.823C536.474 510.931 536.255 511.043 536.148 511.257C536.037 511.479 535.93 511.807 535.93 512.024C535.93 512.352 536.037 512.572 536.148 512.79C536.255 512.901 536.366 513.12 536.529 513.232L536.474 514.761C536.2 514.873 536.037 515.089 535.818 515.309C535.711 515.634 535.601 515.961 535.601 516.291C535.601 516.618 535.711 516.949 535.818 517.167C535.93 517.497 536.096 517.604 536.311 517.826L536.256 519.465C535.493 519.901 534.458 520.558 533.536 521.326C532.5 522.091 531.574 523.075 531.142 524.06C530.705 525.046 530.598 526.03 530.598 526.794C530.705 527.561 530.813 528.215 530.972 528.654C527.763 530.513 523.792 533.033 520.249 535.987C516.6 539.048 513.388 542.44 511.759 546.159C507.732 555.457 510.833 564.65 512.084 567.495H511.429C510.777 567.495 510.177 568.042 510.177 568.805C510.177 569.462 510.777 570.012 511.429 570.012H511.706V573.184H504.626V586.204H501.521L501.465 553.708H503.158C504.295 553.708 505.225 552.724 505.225 551.631C505.225 550.431 504.294 549.554 503.158 549.554H501.415L501.252 518.374H501.851C502.828 518.374 503.699 517.607 503.699 516.622C503.699 515.528 502.828 514.763 501.851 514.763H501.196L501.085 489.491H501.851C502.722 489.491 503.483 488.725 503.483 487.85C503.483 487.083 502.936 486.426 502.229 486.319V481.284L502.288 481.066C502.229 480.957 502.229 480.849 502.229 480.737V478.66H502.884C503.376 478.66 503.699 478.331 503.699 477.893C503.699 477.454 503.376 477.018 502.884 477.018H501.955C502.392 475.704 502.988 473.081 501.851 470.456C501.307 469.251 500.216 468.046 498.969 467.064C497.766 465.971 496.407 465.203 495.316 464.547C495.372 464.438 495.427 464.219 495.427 463.889C495.427 463.67 495.427 463.346 495.316 463.013C495.098 462.576 494.828 462.249 494.446 462.029C494.12 461.812 493.791 461.595 493.576 461.483L493.521 460.827C493.576 460.827 493.68 460.719 493.68 460.607C493.74 460.607 493.791 460.498 493.791 460.387C493.791 460.279 493.74 460.168 493.68 460.061C493.629 459.951 493.576 459.842 493.465 459.842V459.295C493.521 459.295 493.576 459.187 493.576 459.187C493.629 459.076 493.68 458.966 493.68 458.856C493.68 458.856 493.629 458.748 493.576 458.636C493.576 458.529 493.465 458.529 493.41 458.529V457.981L493.247 453.933C493.247 453.933 493.195 453.824 493.143 453.824C493.085 453.824 493.032 453.933 493.032 453.933L492.866 457.981L492.811 458.529C492.758 458.529 492.707 458.529 492.707 458.636C492.596 458.748 492.596 458.856 492.596 458.856C492.596 458.966 492.596 459.076 492.647 459.187C492.707 459.187 492.707 459.295 492.811 459.295V459.842C492.707 459.842 492.596 459.951 492.596 460.061C492.488 460.169 492.488 460.28 492.488 460.387C492.488 460.498 492.488 460.607 492.596 460.607C492.596 460.719 492.647 460.827 492.707 460.827V461.483C492.433 461.595 492.103 461.812 491.778 462.029C491.397 462.25 491.126 462.576 490.964 463.013C490.853 463.345 490.798 463.67 490.798 463.889C490.798 464.218 490.853 464.438 490.908 464.547C489.82 465.203 488.458 465.971 487.259 467.064C486.063 468.046 484.972 469.251 484.424 470.456C483.233 473.081 483.829 475.704 484.262 477.018H483.501C483.013 477.018 482.684 477.454 482.684 477.893C482.684 478.331 483.013 478.66 483.501 478.66H484.158V486.319C483.451 486.426 482.904 487.083 482.904 487.85C482.904 488.725 483.665 489.491 484.536 489.491H485.297L485.194 514.763H484.536C483.558 514.763 482.685 515.528 482.685 516.622C482.685 517.607 483.558 518.374 484.536 518.374H485.133L484.971 549.554H483.231C482.085 549.554 481.162 550.431 481.162 551.631C481.162 552.724 482.085 553.708 483.231 553.708H484.971L484.86 610.054H478.986V606.88H479.584C480.293 606.88 480.837 606.333 480.837 605.676C480.837 604.91 480.293 604.363 479.584 604.363H478.936C480.182 601.519 483.34 592.329 479.257 583.029C477.677 579.308 474.41 575.916 470.761 572.856C467.226 569.897 463.307 567.385 460.04 565.523C460.202 565.086 460.368 564.428 460.368 563.776C460.42 562.898 460.313 561.915 459.932 560.931C459.439 559.946 458.514 558.961 457.534 558.197C456.553 557.431 455.575 556.773 454.813 556.335L454.703 554.698C454.922 554.477 455.084 554.368 455.195 554.039C455.359 553.819 455.469 553.491 455.469 553.164C455.469 552.834 455.359 552.506 455.14 552.178C455.033 551.96 454.814 551.739 454.6 551.63L454.489 550.098C454.651 549.989 454.814 549.773 454.87 549.661C455.033 549.441 455.033 549.225 455.033 548.896C455.033 548.679 454.978 548.346 454.814 548.131C454.704 547.911 454.6 547.803 454.378 547.694L454.326 546.054L453.782 534.238C453.782 534.127 453.671 534.018 453.505 533.907C453.397 533.907 453.29 534.019 453.29 534.238L452.746 546.054L452.634 547.694C452.472 547.803 452.312 547.912 452.202 548.131C452.091 548.346 451.983 548.679 451.983 548.896C451.983 549.224 452.034 549.441 452.202 549.661C452.257 549.773 452.423 549.989 452.527 550.098L452.472 551.63C452.202 551.739 452.036 551.96 451.874 552.178C451.713 552.506 451.6 552.834 451.6 553.164C451.6 553.49 451.653 553.819 451.874 554.039C451.983 554.366 452.091 554.477 452.312 554.698L452.257 556.335C451.49 556.773 450.459 557.431 449.537 558.197C448.5 558.962 447.574 559.946 447.135 560.931C446.757 561.915 446.649 562.898 446.649 563.776C446.649 564.428 446.865 565.086 446.975 565.523C443.763 567.387 439.791 569.898 436.25 572.856C432.6 575.916 429.391 579.308 427.811 583.029C423.728 592.329 426.829 601.519 428.132 604.363H427.429C426.722 604.363 426.178 604.91 426.178 605.676C426.178 606.333 426.722 606.88 427.429 606.88H427.7V610.054C421.876 599.934 402.189 598.435 395.592 612.411L395.504 596.871H396.149C397.197 596.871 398.056 595.988 398.056 594.94C398.056 593.887 397.197 593.02 396.149 593.02H395.473L395.32 566.277H396.15C397.074 566.277 397.843 565.515 397.843 564.576C397.843 563.756 397.273 563.077 396.522 562.904V554.897H397.258C397.723 554.897 398.121 554.493 398.121 554.002C398.121 553.523 397.723 553.133 397.258 553.133H396.259C396.737 551.697 397.353 548.947 396.121 546.146C395.536 544.848 394.4 543.613 393.075 542.528C391.813 541.479 390.397 540.581 389.26 539.931C389.306 539.748 389.352 539.53 389.368 539.266C389.381 538.941 389.352 538.599 389.198 538.264C389.044 537.89 388.707 537.55 388.335 537.273C387.999 537.01 387.628 536.794 387.367 536.64L387.351 536.036C387.413 535.975 387.475 535.896 387.506 535.818C387.566 535.711 387.599 535.606 387.599 535.496C387.599 535.369 387.566 535.232 387.506 535.14C387.444 535.046 387.382 534.984 387.29 534.922L387.259 534.397C387.319 534.348 387.367 534.288 387.399 534.209C387.444 534.15 387.475 534.055 387.475 533.964C387.475 533.871 387.444 533.763 387.382 533.687C387.351 533.624 387.29 533.562 387.228 533.499L387.198 532.941L387.014 528.708C387.014 528.661 386.984 528.617 386.921 528.617C386.857 528.617 386.827 528.647 386.813 528.708L386.629 532.941L386.612 533.499C386.537 533.564 386.476 533.624 386.442 533.687C386.385 533.763 386.367 533.871 386.367 533.964C386.367 534.055 386.385 534.15 386.429 534.209C386.459 534.288 386.521 534.348 386.55 534.397L386.537 534.922C386.459 534.984 386.367 535.046 386.336 535.14C386.261 535.232 386.228 535.368 386.228 535.496C386.228 535.606 386.26 535.711 386.322 535.818C386.352 535.895 386.429 535.975 386.491 536.036L386.459 536.64C386.183 536.794 385.812 537.011 385.491 537.273C385.12 537.55 384.783 537.892 384.644 538.264C384.475 538.599 384.444 538.941 384.46 539.266C384.46 539.53 384.52 539.746 384.582 539.931C383.429 540.581 382.014 541.479 380.735 542.528C379.442 543.612 378.275 544.848 377.706 546.146C376.49 548.947 377.076 551.697 377.567 553.133H376.736C376.243 553.133 375.845 553.522 375.845 554.002C375.845 554.493 376.243 554.897 376.736 554.897H377.412V562.904C376.673 563.09 376.119 563.771 376.119 564.576C376.119 565.515 376.906 566.277 377.842 566.277H378.641L378.49 593.02H377.842C376.78 593.02 375.903 593.887 375.903 594.94C375.903 595.988 376.779 596.871 377.842 596.871H378.49L378.334 620.666C370.738 604.867 355.173 593.686 336.872 592.358V590.491C336.872 590.192 336.754 589.899 336.54 589.684C336.324 589.469 336.042 589.351 335.737 589.351H334.805L334.073 570.215C338.207 568.483 341.413 564.768 342.244 560.013C343.228 554.37 340.598 548.938 336.047 546.089C337.992 548.919 338.865 552.493 338.227 556.16C336.941 563.564 329.899 568.521 322.54 567.224C320.774 566.914 319.161 566.275 317.723 565.383C319.722 568.29 322.823 570.416 326.56 571.076C328.877 571.486 331.134 571.215 333.216 570.501L332.469 589.35H331.558C330.917 589.35 330.39 589.878 330.39 590.526V592.317C310.654 593.429 294.002 605.996 286.886 623.532C285.892 622.39 284.726 621.301 283.494 620.263C281.104 618.269 278.458 616.566 276.249 615.311C276.358 615.015 276.471 614.572 276.471 614.13C276.505 613.538 276.434 612.871 276.175 612.208C275.843 611.541 275.218 610.876 274.557 610.359C273.894 609.839 273.233 609.397 272.717 609.1L272.643 607.993C272.79 607.846 272.9 607.771 272.976 607.548C273.086 607.403 273.16 607.177 273.16 606.959C273.16 606.736 273.086 606.513 272.937 606.289C272.866 606.144 272.717 605.995 272.572 605.921L272.497 604.885C272.607 604.813 272.717 604.665 272.756 604.59C272.866 604.441 272.866 604.295 272.866 604.072C272.866 603.924 272.827 603.701 272.717 603.558C272.643 603.407 272.572 603.335 272.421 603.258L272.387 602.15L272.02 594.167C272.02 594.093 271.944 594.021 271.832 593.945C271.76 593.945 271.687 594.02 271.687 594.167L271.319 602.15L271.244 603.258C271.135 603.335 271.027 603.407 270.952 603.558C270.877 603.701 270.804 603.924 270.804 604.072C270.804 604.295 270.84 604.441 270.952 604.59C270.989 604.665 271.102 604.814 271.172 604.885L271.135 605.921C270.952 605.995 270.84 606.144 270.731 606.289C270.622 606.513 270.547 606.736 270.547 606.959C270.547 607.178 270.583 607.403 270.731 607.548C270.804 607.772 270.877 607.846 271.027 607.993L270.989 609.1C270.472 609.397 269.773 609.839 269.152 610.359C268.45 610.876 267.825 611.541 267.528 612.208C267.272 612.871 267.199 613.536 267.199 614.13C267.199 614.572 267.345 615.015 267.421 615.311C265.251 616.566 262.567 618.269 260.173 620.263C257.706 622.335 255.537 624.625 254.47 627.14C253.789 628.689 253.408 630.231 253.226 631.71C246.066 628.912 240.01 625.367 235.163 621.224C235.364 620.828 235.51 620.402 235.51 619.923C235.51 618.747 234.796 617.737 233.778 617.29L233.053 605.921H232.204L231.476 617.29C230.458 617.737 229.755 618.747 229.755 619.923C229.755 620.402 229.89 620.828 230.098 621.224C224.805 625.724 218.01 629.597 210.037 632.475C197.785 636.881 189.611 644.772 189.611 653.785C189.611 656.365 190.286 658.865 191.527 661.201H186.732V640.449H187.016C187.83 640.449 188.493 639.791 188.493 638.969V638.129C188.493 637.318 187.83 636.652 187.016 636.652H185.086C185.166 636.102 185.221 635.559 185.221 634.974C185.221 631.018 183.134 627.54 180.008 625.604C178.064 624.404 176.407 622.845 175.102 621.008C175.35 620.775 175.496 620.442 175.496 620.08C175.496 619.564 175.191 619.11 174.741 618.919L174.418 613.914H174.047L173.729 618.919C173.279 619.11 172.97 619.564 172.97 620.08C172.97 620.444 173.122 620.775 173.368 621.008C172.048 622.838 170.388 624.406 168.468 625.604C165.338 627.539 163.248 631.018 163.248 634.974C163.248 635.559 163.301 636.102 163.394 636.652H161.395C160.583 636.652 159.928 637.32 159.928 638.129V638.969C159.928 639.792 160.583 640.449 161.395 640.449H161.731V662.213C160.074 656.454 155.756 651.841 150.174 649.804C150.181 649.713 150.202 649.623 150.202 649.529C150.202 646.759 148.444 644.431 145.991 643.536L145.094 640.804C145.27 640.555 145.393 640.269 145.393 639.945C145.393 639.317 145.008 638.788 144.479 638.54L143.92 629.919C143.92 629.879 143.874 629.85 143.827 629.85C143.796 629.85 143.754 629.878 143.754 629.919L143.196 638.54C142.67 638.788 142.288 639.316 142.288 639.945C142.288 640.269 142.406 640.552 142.572 640.797L141.681 643.536C139.232 644.431 137.478 646.766 137.478 649.529C137.478 649.623 137.499 649.713 137.499 649.804C130.336 652.419 125.183 659.259 125.183 667.369C125.183 669.313 125.554 671.152 126.101 672.918H119.657V675.752H118.995V781.733H1343.2V675.752V672.918H1336.76V672.919ZM1295.48 649.914C1295.48 646.988 1296.35 644.532 1297.52 643.794C1298.68 644.531 1299.53 646.988 1299.53 649.914V661.399H1295.48V649.914ZM1283.5 648.693C1283.5 645.465 1285.67 642.748 1288.63 641.915C1291.57 642.747 1293.74 645.465 1293.74 648.693V661.398H1285.98V661.202H1283.5V648.693ZM1277.74 649.914C1277.74 646.988 1278.6 644.532 1279.76 643.794C1280.94 644.531 1281.79 646.988 1281.79 649.914V661.202H1277.74V649.914H1277.74ZM1072.95 558.298C1072.26 556.317 1075.51 556.415 1075.88 554.899C1076.26 556.415 1079.51 556.317 1078.8 558.298C1078.71 558.608 1078.6 558.853 1078.85 559.163C1079.08 559.473 1079.05 559.72 1079.05 559.72V562.858H1072.74V559.72C1072.74 559.72 1072.68 559.473 1072.93 559.163C1073.17 558.853 1073.08 558.608 1072.95 558.298ZM966.286 485.41V479.749C966.286 477.548 967.76 475.701 969.775 475.134C971.778 475.701 973.26 477.549 973.26 479.749V485.542H966.284L966.286 485.41ZM878.412 558.013C878.412 555.085 879.273 552.632 880.447 551.89C881.609 552.631 882.461 555.085 882.461 558.013V567.033H878.412V558.013ZM866.642 566.828V558.511C866.642 555.283 868.81 552.566 871.766 551.733C874.711 552.565 876.881 555.283 876.881 558.511V567.021H866.638L866.642 566.828ZM860.671 558.013C860.671 555.085 861.526 552.632 862.69 551.89C863.863 552.631 864.718 555.085 864.718 558.013V567.061H860.67L860.671 558.013ZM598.141 558.013C598.141 555.085 598.993 552.632 600.168 551.89C601.333 552.631 602.187 555.085 602.187 558.013V567.061H598.141V558.013ZM585.975 558.511C585.975 555.283 588.147 552.566 591.089 551.733C594.05 552.565 596.215 555.283 596.215 558.511V566.828L596.218 567.021H585.974V558.511H585.975ZM580.397 558.013C580.397 555.085 581.249 552.632 582.41 551.89C583.585 552.631 584.446 555.085 584.446 558.013V567.033H580.397V558.013ZM489.601 479.749C489.601 477.548 491.08 475.701 493.084 475.134C495.098 475.701 496.573 477.549 496.573 479.749V485.41L496.576 485.541H489.601V479.749ZM384.055 558.298C383.348 556.317 386.595 556.415 386.979 554.899C387.347 556.415 390.593 556.317 389.903 558.298C389.779 558.608 389.686 558.853 389.932 559.163C390.178 559.473 390.119 559.72 390.119 559.72V562.858H383.809V559.72C383.809 559.72 383.778 559.473 384.008 559.163C384.256 558.853 384.149 558.608 384.055 558.298ZM181.069 649.914C181.069 646.988 181.921 644.532 183.096 643.794C184.261 644.531 185.115 646.988 185.115 649.914V661.202H181.069V649.914ZM169.117 648.693C169.117 645.465 171.289 642.748 174.231 641.915C177.192 642.747 179.357 645.465 179.357 648.693V661.202H176.878V661.398H169.116L169.117 648.693ZM163.326 649.914C163.326 646.988 164.178 644.532 165.339 643.794C166.514 644.531 167.374 646.988 167.374 649.914V661.399H163.326V649.914Z" fill="#0E9F6E"/>
</g>
</g>
<defs>
<linearGradient id="paint0_linear_301_1445" x1="0" y1="0" x2="89.3914" y2="858.184" gradientUnits="userSpaceOnUse">
<stop stop-color="white"/>
<stop offset="1" stop-color="#E9E9E9"/>
</linearGradient>
<clipPath id="clip0_301_1445">
<rect width="1464" height="715" rx="35" fill="white"/>
</clipPath>
</defs>
</svg>
